# Blender 3.5.1
# www.blender.org
mtllib belt.mtl
o belt
v -0.057814 1.461853 -0.145315
v -0.056883 1.471691 -0.144978
v -0.033398 1.483007 -0.148089
v -0.036793 1.443644 -0.152106
v -0.000619 1.442287 -0.154827
v -0.000609 1.482734 -0.152421
v 0.056651 1.461853 -0.145772
v 0.055723 1.471691 -0.145428
v 0.032213 1.483007 -0.148351
v 0.035577 1.443644 -0.152395
vn -0.2006 0.1039 -0.9741
vn -0.1394 0.0919 -0.9860
vn -0.1381 0.0917 -0.9862
vn -0.0040 0.0844 -0.9964
vn 0.1929 0.1039 -0.9757
vn 0.1302 0.0917 -0.9872
vn 0.1315 0.0919 -0.9870
vt 0.836237 0.441975
vt 0.835774 0.450175
vt 0.824408 0.459570
vt 0.826728 0.422689
vt 0.808215 0.418086
vt 0.808215 0.458282
vt 0.836237 0.441975
vt 0.835774 0.450175
vt 0.824408 0.459570
vt 0.826728 0.422689
s 1
usemtl Material_#22
f 1/1/1 2/2/1 3/3/2 4/4/3
f 5/5/4 4/4/3 3/3/2 6/6/4
f 7/7/5 10/10/6 9/9/7 8/8/5
f 5/5/4 6/6/4 9/9/7 10/10/6
