# Blender 3.5.1
# www.blender.org
mtllib sabuk_pedang.mtl
o sabuk_pedang
v -0.135708 1.494766 -0.034977
v -0.135975 1.499880 -0.044320
v -0.150039 1.441608 -0.056585
v -0.147702 1.441326 -0.049275
v -0.133350 1.442122 -0.096874
v -0.116242 1.495845 -0.099536
v -0.122084 1.500650 -0.090389
v -0.139797 1.442176 -0.090551
v -0.426387 0.778963 0.139163
v -0.270016 1.173766 0.005488
v -0.256910 1.167558 0.002440
v -0.416655 0.774359 0.136917
v -0.172730 1.420117 -0.078179
v -0.157175 1.412801 -0.081635
v -0.165612 1.392054 -0.074523
v -0.181098 1.399309 -0.071170
v -0.193373 1.414533 -0.039403
v -0.185157 1.435529 -0.046020
v -0.434281 0.788754 0.159591
v -0.280650 1.186956 0.033011
v -0.429152 0.789858 0.169258
v -0.273759 1.188454 0.046043
v -0.185068 1.416184 -0.024172
v -0.176872 1.437230 -0.030661
vn -0.9625 0.1752 0.2073
vn -0.9700 0.2379 -0.0490
vn -0.9687 0.2406 -0.0615
vn -0.8546 0.2552 -0.4523
vn -0.8506 0.2537 -0.4606
vn -0.7315 0.2126 -0.6479
vn -0.3076 -0.1936 -0.9316
vn -0.3047 -0.1956 -0.9321
vn -0.2975 -0.1972 -0.9341
vn -0.2996 -0.1973 -0.9334
vn -0.2997 -0.1973 -0.9334
vn -0.8759 0.2051 -0.4367
vn -0.8772 0.2019 -0.4357
vn -0.8781 0.1995 -0.4349
vn -0.8778 0.2003 -0.4352
vn -0.8151 0.4358 0.3817
vn -0.8137 0.4356 0.3850
vn -0.8137 0.4356 0.3849
vn -0.8095 0.4379 0.3910
vn -0.8109 0.4367 0.3896
vt 0.591424 0.464366
vt 0.587929 0.465713
vt 0.584383 0.419435
vt 0.586942 0.418589
vt 0.567626 0.420832
vt 0.565712 0.467002
vt 0.569599 0.468043
vt 0.570827 0.420491
vt 0.904060 0.809273
vt 0.900559 0.870626
vt 0.894631 0.870085
vt 0.899661 0.808871
vt 0.896028 0.984786
vt 0.889014 0.984072
vt 0.889812 0.962546
vt 0.896784 0.963093
vt 0.911706 0.964349
vt 0.911156 0.986063
vt 0.913662 0.810080
vt 0.913489 0.871712
vt 0.918063 0.810418
vt 0.919419 0.872169
vt 0.918676 0.964975
vt 0.918179 0.986525
s 1
usemtl Material_#22
f 1/1/1 2/2/2 3/3/3 4/4/1
f 8/8/4 7/7/5 6/6/6 5/5/6
f 3/3/3 2/2/2 7/7/5 8/8/4
f 9/9/7 10/10/8 11/11/8 12/12/7
f 13/13/9 14/14/9 15/15/10 16/16/11
f 13/13/12 16/16/13 17/17/13 18/18/12
f 10/10/14 9/9/15 19/19/15 20/20/14
f 19/19/16 21/21/16 22/22/17 20/20/18
f 18/18/19 17/17/20 23/23/20 24/24/19
f 10/10/8 16/16/11 15/15/10 11/11/8
f 17/17/13 16/16/13 10/10/14 20/20/14
f 20/20/18 22/22/17 23/23/20 17/17/20
