# Blender 3.5.1
# www.blender.org
mtllib iron_wire.mtl
o iron_wire
v -0.002129 -0.044564 -8.217979
v 4.262451 10.189846 0.840518
v 0.026222 -0.031581 -8.231327
v 4.290802 10.202827 0.827170
v 0.037966 -0.000246 -8.236855
v 4.302547 10.234162 0.821641
v 0.026222 0.031090 -8.231327
v 4.290802 10.265501 0.827170
v -0.002129 0.044070 -8.217979
v 4.262451 10.278481 0.840518
v 18.539457 -0.031581 24.946377
v 11.934147 10.202827 17.422222
v 18.529701 -0.000246 24.954941
v 11.924392 10.234162 17.430786
v 18.539457 0.031090 24.946377
v 11.934147 10.265501 17.422222
v 18.563007 0.044070 24.925701
v 11.957696 10.278481 17.401550
v 18.586555 0.031090 24.905029
v 11.981245 10.265501 17.380877
v 18.596310 -0.000246 24.896467
v 11.990999 10.234162 17.372313
v 23.244324 -0.031581 -0.448948
v 15.133575 10.202827 5.421216
v 23.251934 -0.000246 -0.438433
v 15.141187 10.234162 5.431732
v 23.244324 0.031090 -0.448948
v 15.133575 10.265501 5.421216
v 23.225948 0.044070 -0.474333
v 15.115204 10.278481 5.395831
v 23.207577 0.031090 -0.499718
v 15.096831 10.265501 5.370446
v 23.199966 -0.000246 -0.510233
v 15.089221 10.234162 5.359931
v -9.855351 -0.031581 18.925507
v -1.436452 10.202827 13.506546
v -9.889270 0.031090 18.872810
v -1.470371 10.265501 13.453847
v -9.872310 0.044070 18.899158
v -1.453411 10.278481 13.480196
v -9.855351 0.031090 18.925507
v -1.436452 10.265501 13.506546
v -9.848325 -0.000246 18.936422
v -1.429425 10.234162 13.517460
v -10.753568 -0.031581 2.261978
v -1.275824 10.202827 5.489269
v -10.753568 0.031090 2.261978
v -1.275824 10.265501 5.489269
v -10.757752 -0.000246 2.274266
v -1.280008 10.234162 5.501556
vn 0.5442 -0.6717 0.5027
vn 0.6841 -0.6221 0.3808
vn 0.8267 -0.5245 0.2034
vn 0.9529 -0.1836 -0.2412
vn 0.7931 0.1836 -0.5808
vn 0.3699 0.5245 -0.7668
vn 0.1424 0.6221 -0.7699
vn -0.0407 0.6717 -0.7397
vn -0.9023 -0.3296 0.2780
vn -0.8489 -0.1836 0.4956
vn -0.6014 0.1835 0.7776
vn -0.8699 -0.3928 0.2984
vn -0.1432 0.5245 0.8392
vn 0.0763 0.6221 0.7792
vn 0.4716 0.6993 0.5372
vn 0.8507 0.5246 -0.0333
vn 0.7627 0.6221 0.1766
vn 0.8869 0.3564 -0.2938
vn 0.1921 -0.3296 0.9244
vn 0.4137 -0.1836 0.8917
vn 0.7177 0.1836 0.6717
vn 0.2154 -0.3929 0.8940
vn 0.8221 0.5246 0.2213
vn 0.7829 0.6221 -0.0029
vn 0.5791 0.6993 -0.4191
vn 0.0466 0.5246 -0.8501
vn 0.2474 0.6221 -0.7428
vn -0.2093 0.3564 -0.9106
vn -0.7206 0.6703 0.1775
vn -0.6011 0.6993 0.3869
vn -0.7137 0.6799 0.1682
vn -0.0930 0.5246 0.8463
vn -0.2876 0.6221 0.7282
vn 0.6801 -0.1836 0.7098
vn 0.3645 0.1836 0.9129
vn 0.7911 -0.3296 0.5153
vn 0.7544 -0.3929 0.5259
vn -0.6051 0.3928 0.6925
vn -0.1334 -0.1836 0.9739
vn -0.4887 0.1836 0.8529
vn -0.6433 0.3296 0.6910
vn 0.0880 -0.3296 0.9400
vn 0.0568 -0.3929 0.9178
vt 0.095832 0.560000
vt 0.100433 0.987275
vt 0.096817 0.560267
vt 0.101400 0.987543
vt 0.097593 0.560928
vt 0.102159 0.988203
vt 0.098360 0.561587
vt 0.091428 0.561661
vt 0.102927 0.988863
vt 0.095993 0.988937
vt 0.092414 0.561927
vt 0.096960 0.989203
vt 0.096817 0.560267
vt 0.101400 0.987543
vt 0.097593 0.560928
vt 0.102159 0.988203
vt 0.098360 0.561587
vt 0.091428 0.561661
vt 0.102927 0.988863
vt 0.095993 0.988937
vt 0.092414 0.561927
vt 0.096960 0.989203
vt 0.093385 0.561640
vt 0.097930 0.988916
vt 0.094124 0.560963
vt 0.098695 0.988240
vt 0.096817 0.560267
vt 0.101400 0.987543
vt 0.097593 0.560928
vt 0.102159 0.988203
vt 0.098360 0.561587
vt 0.091428 0.561661
vt 0.102927 0.988863
vt 0.095993 0.988937
vt 0.092414 0.561927
vt 0.096960 0.989203
vt 0.093385 0.561640
vt 0.097930 0.988916
vt 0.094124 0.560963
vt 0.098695 0.988240
vt 0.094867 0.560287
vt 0.099457 0.987563
vt 0.091428 0.561661
vt 0.095993 0.988937
vt 0.092414 0.561927
vt 0.096960 0.989203
vt 0.093385 0.561640
vt 0.097930 0.988916
vt 0.094124 0.560963
vt 0.098695 0.988240
vt 0.094867 0.560287
vt 0.099457 0.987563
vt 0.093385 0.561640
vt 0.097930 0.988916
vt 0.094124 0.560963
vt 0.098695 0.988240
s 1
usemtl Cirkus_tent:initialShadingGroup
f 1/1/1 3/3/2 4/4/3 2/2/1
f 3/3/2 5/5/4 6/6/5 4/4/3
f 5/5/4 7/7/6 8/9/7 6/6/5
f 7/8/6 9/11/8 10/12/8 8/10/7
f 11/13/9 13/15/10 14/16/11 12/14/12
f 13/15/10 15/17/13 16/19/14 14/16/11
f 15/18/13 17/21/15 18/22/15 16/20/14
f 17/21/15 19/23/16 20/24/17 18/22/15
f 19/23/16 21/25/18 22/26/18 20/24/17
f 23/27/19 25/29/20 26/30/21 24/28/22
f 25/29/20 27/31/23 28/33/24 26/30/21
f 27/32/23 29/35/25 30/36/25 28/34/24
f 29/35/25 31/37/26 32/38/27 30/36/25
f 31/37/26 33/39/28 34/40/28 32/38/27
f 37/43/29 39/45/30 40/46/30 38/44/31
f 39/45/30 41/47/32 42/48/33 40/46/30
f 41/47/32 43/49/34 44/50/35 42/48/33
f 43/49/34 35/41/36 36/42/37 44/50/35
f 47/53/38 49/55/39 50/56/40 48/54/41
f 49/55/39 45/51/42 46/52/43 50/56/40
