# Blender 3.5.1
# www.blender.org
mtllib satelite sementara.mtl
o Cone.001
v 0.000000 -0.780000 1.000000
v 0.195090 -0.780000 0.980785
v 0.382683 -0.780000 0.923880
v 0.555570 -0.780000 0.831470
v 0.707107 -0.780000 0.707107
v 0.831470 -0.780000 0.555570
v 0.923880 -0.780000 0.382684
v 0.980785 -0.780000 0.195090
v 1.000000 -0.780000 0.000000
v 0.980785 -0.780000 -0.195090
v 0.923880 -0.780000 -0.382683
v 0.831470 -0.780000 -0.555570
v 0.707107 -0.780000 -0.707107
v 0.555570 -0.780000 -0.831470
v 0.382683 -0.780000 -0.923879
v 0.195090 -0.780000 -0.980785
v 0.000000 -0.780000 -1.000000
v -0.195090 -0.780000 -0.980785
v -0.382683 -0.780000 -0.923879
v -0.555570 -0.780000 -0.831470
v -0.707107 -0.780000 -0.707107
v -0.831470 -0.780000 -0.555570
v -0.923880 -0.780000 -0.382683
v -0.980785 -0.780000 -0.195090
v -1.000000 -0.780000 0.000000
v -0.980785 -0.780000 0.195090
v -0.923880 -0.780000 0.382684
v -0.831470 -0.780000 0.555570
v -0.707107 -0.780000 0.707107
v -0.555570 -0.780000 0.831470
v -0.382683 -0.780000 0.923880
v -0.195090 -0.780000 0.980785
v 0.000000 -2.780000 -0.000000
v 2.121320 3.535534 -6.000000
v 3.535534 2.121320 -6.000000
v 2.121320 3.535534 -4.000000
v 3.535534 2.121320 -4.000000
v -3.535534 -2.121320 -6.000000
v -2.121320 -3.535534 -6.000000
v -3.535534 -2.121320 -4.000000
v -2.121320 -3.535534 -4.000000
v 0.000000 0.830000 -1.000000
v 0.195090 0.830000 -0.980785
v 0.382683 0.830000 -0.923880
v 0.555570 0.830000 -0.831470
v 0.707107 0.830000 -0.707107
v 0.831470 0.830000 -0.555570
v 0.923880 0.830000 -0.382683
v 0.980785 0.830000 -0.195090
v 1.000000 0.830000 0.000000
v 0.980785 0.830000 0.195090
v 0.923880 0.830000 0.382683
v 0.831470 0.830000 0.555570
v 0.707107 0.830000 0.707107
v 0.555570 0.830000 0.831470
v 0.382683 0.830000 0.923880
v 0.195090 0.830000 0.980785
v 0.000000 0.830000 1.000000
v -0.195090 0.830000 0.980785
v -0.382683 0.830000 0.923880
v -0.555570 0.830000 0.831470
v -0.707107 0.830000 0.707107
v -0.831470 0.830000 0.555570
v -0.923880 0.830000 0.382683
v -0.980785 0.830000 0.195090
v -1.000000 0.830000 0.000000
v -0.980785 0.830000 -0.195090
v -0.923880 0.830000 -0.382683
v -0.831470 0.830000 -0.555570
v -0.707107 0.830000 -0.707107
v -0.555570 0.830000 -0.831470
v -0.382683 0.830000 -0.923880
v -0.195090 0.830000 -0.980785
v 0.000000 2.830000 -0.000000
v 0.000000 1.000000 -4.809999
v 0.000000 1.000000 4.810000
v 0.195090 0.980786 -4.809999
v 0.195090 0.980785 4.810000
v 0.382683 0.923880 -4.810000
v 0.382683 0.923879 4.810000
v 0.555570 0.831470 -4.810000
v 0.555570 0.831469 4.810000
v 0.707107 0.707107 -4.810000
v 0.707107 0.707107 4.810000
v 0.831470 0.555570 -4.810000
v 0.831470 0.555570 4.810000
v 0.923880 0.382684 -4.810000
v 0.923880 0.382683 4.810000
v 0.980785 0.195091 -4.810000
v 0.980785 0.195090 4.810000
v 1.000000 0.000000 -4.810000
v 1.000000 -0.000000 4.810000
v 0.980785 -0.195090 -4.810000
v 0.980785 -0.195091 4.810000
v 0.923880 -0.382683 -4.810000
v 0.923880 -0.382684 4.810000
v 0.831470 -0.555570 -4.810000
v 0.831470 -0.555570 4.810000
v 0.707107 -0.707107 -4.810000
v 0.707107 -0.707107 4.810000
v 0.555570 -0.831469 -4.810000
v 0.555570 -0.831470 4.810000
v 0.382683 -0.923879 -4.810000
v 0.382683 -0.923880 4.810000
v 0.195090 -0.980785 -4.810000
v 0.195090 -0.980785 4.810000
v 0.000000 -1.000000 -4.810000
v 0.000000 -1.000000 4.810000
v -0.195090 -0.980785 -4.810000
v -0.195090 -0.980785 4.810000
v -0.382683 -0.923879 -4.810000
v -0.382683 -0.923880 4.810000
v -0.555570 -0.831469 -4.810000
v -0.555570 -0.831470 4.810000
v -0.707107 -0.707107 -4.810000
v -0.707107 -0.707107 4.810000
v -0.831470 -0.555570 -4.810000
v -0.831470 -0.555570 4.810000
v -0.923880 -0.382683 -4.810000
v -0.923880 -0.382684 4.810000
v -0.980785 -0.195090 -4.810000
v -0.980785 -0.195091 4.810000
v -1.000000 0.000000 -4.810000
v -1.000000 -0.000000 4.810000
v -0.980785 0.195091 -4.810000
v -0.980785 0.195090 4.810000
v -0.923880 0.382684 -4.810000
v -0.923880 0.382683 4.810000
v -0.831470 0.555570 -4.810000
v -0.831470 0.555570 4.810000
v -0.707107 0.707107 -4.810000
v -0.707107 0.707107 4.810000
v -0.555570 0.831470 -4.810000
v -0.555570 0.831469 4.810000
v -0.382683 0.923880 -4.810000
v -0.382683 0.923879 4.810000
v -0.195090 0.980786 -4.809999
v -0.195090 0.980785 4.810000
v 3.535534 -2.121320 4.000000
v 2.121320 -3.535534 4.000000
v 3.535534 -2.121320 6.000000
v 2.121320 -3.535534 6.000000
v -2.121320 3.535534 4.000000
v -3.535534 2.121320 4.000000
v -2.121320 3.535534 6.000000
v -3.535534 2.121320 6.000000
vn 0.0878 -0.4455 0.8910
vn 0.2599 -0.4455 0.8567
vn 0.4220 -0.4455 0.7896
vn 0.5680 -0.4455 0.6921
vn 0.6921 -0.4455 0.5680
vn 0.7896 -0.4455 0.4220
vn 0.8567 -0.4455 0.2599
vn 0.8910 -0.4455 0.0878
vn 0.8910 -0.4455 -0.0878
vn 0.8567 -0.4455 -0.2599
vn 0.7896 -0.4455 -0.4220
vn 0.6921 -0.4455 -0.5680
vn 0.5680 -0.4455 -0.6921
vn 0.4220 -0.4455 -0.7896
vn 0.2599 -0.4455 -0.8567
vn 0.0878 -0.4455 -0.8910
vn -0.0878 -0.4455 -0.8910
vn -0.2599 -0.4455 -0.8567
vn -0.4220 -0.4455 -0.7896
vn -0.5680 -0.4455 -0.6921
vn -0.6921 -0.4455 -0.5680
vn -0.7896 -0.4455 -0.4220
vn -0.8567 -0.4455 -0.2599
vn -0.8910 -0.4455 -0.0878
vn -0.8910 -0.4455 0.0878
vn -0.8567 -0.4455 0.2599
vn -0.7896 -0.4455 0.4220
vn -0.6921 -0.4455 0.5680
vn -0.5680 -0.4455 0.6921
vn -0.4220 -0.4455 0.7896
vn -0.0000 1.0000 -0.0000
vn -0.2599 -0.4455 0.8567
vn -0.0878 -0.4455 0.8910
vn -0.7071 0.7071 -0.0000
vn -0.0000 -0.0000 1.0000
vn -0.7071 -0.7071 -0.0000
vn 0.7071 -0.7071 -0.0000
vn 0.7071 0.7071 -0.0000
vn -0.0000 -0.0000 -1.0000
vn 0.0878 0.4455 -0.8910
vn 0.2599 0.4455 -0.8567
vn 0.4220 0.4455 -0.7896
vn 0.5680 0.4455 -0.6921
vn 0.6921 0.4455 -0.5680
vn 0.7896 0.4455 -0.4220
vn 0.8567 0.4455 -0.2599
vn 0.8910 0.4455 -0.0878
vn 0.8910 0.4455 0.0878
vn 0.8567 0.4455 0.2599
vn 0.7896 0.4455 0.4220
vn 0.6921 0.4455 0.5680
vn 0.5680 0.4455 0.6921
vn 0.4220 0.4455 0.7896
vn 0.2599 0.4455 0.8567
vn 0.0878 0.4455 0.8910
vn -0.0878 0.4455 0.8910
vn -0.2599 0.4455 0.8567
vn -0.4220 0.4455 0.7896
vn -0.5680 0.4455 0.6921
vn -0.6921 0.4455 0.5680
vn -0.7896 0.4455 0.4220
vn -0.8567 0.4455 0.2599
vn -0.8910 0.4455 0.0878
vn -0.8910 0.4455 -0.0878
vn -0.8567 0.4455 -0.2599
vn -0.7896 0.4455 -0.4220
vn -0.6921 0.4455 -0.5680
vn -0.5680 0.4455 -0.6921
vn -0.4220 0.4455 -0.7896
vn -0.0000 -1.0000 -0.0000
vn -0.2599 0.4455 -0.8567
vn -0.0878 0.4455 -0.8910
vn 0.0980 0.9952 -0.0000
vn 0.2903 0.9569 -0.0000
vn 0.4714 0.8819 -0.0000
vn 0.6344 0.7730 -0.0000
vn 0.7730 0.6344 -0.0000
vn 0.8819 0.4714 -0.0000
vn 0.9569 0.2903 -0.0000
vn 0.9952 0.0980 -0.0000
vn 0.9952 -0.0980 -0.0000
vn 0.9569 -0.2903 -0.0000
vn 0.8819 -0.4714 -0.0000
vn 0.7730 -0.6344 -0.0000
vn 0.6344 -0.7730 -0.0000
vn 0.4714 -0.8819 -0.0000
vn 0.2903 -0.9569 -0.0000
vn 0.0980 -0.9952 -0.0000
vn -0.0980 -0.9952 -0.0000
vn -0.2903 -0.9569 -0.0000
vn -0.4714 -0.8819 -0.0000
vn -0.6344 -0.7730 -0.0000
vn -0.7730 -0.6344 -0.0000
vn -0.8819 -0.4714 -0.0000
vn -0.9569 -0.2903 -0.0000
vn -0.9952 -0.0980 -0.0000
vn -0.9952 0.0980 -0.0000
vn -0.9569 0.2903 -0.0000
vn -0.8819 0.4714 -0.0000
vn -0.7730 0.6344 -0.0000
vn -0.6344 0.7730 -0.0000
vn -0.4714 0.8819 -0.0000
vn -0.2903 0.9569 -0.0000
vn -0.0980 0.9952 -0.0000
vt 0.750000 0.490000
vt 0.250000 0.490000
vt 0.296822 0.485388
vt 0.796822 0.485388
vt 0.341844 0.471731
vt 0.841844 0.471731
vt 0.383337 0.449553
vt 0.883337 0.449553
vt 0.419706 0.419706
vt 0.919706 0.419706
vt 0.449553 0.383337
vt 0.949553 0.383337
vt 0.471731 0.341844
vt 0.971731 0.341844
vt 0.485388 0.296822
vt 0.985388 0.296822
vt 0.490000 0.250000
vt 0.990000 0.250000
vt 0.485388 0.203178
vt 0.985388 0.203178
vt 0.471731 0.158156
vt 0.971731 0.158156
vt 0.449553 0.116663
vt 0.949553 0.116663
vt 0.419706 0.080294
vt 0.919706 0.080294
vt 0.383337 0.050447
vt 0.883337 0.050447
vt 0.341844 0.028269
vt 0.841844 0.028269
vt 0.296822 0.014612
vt 0.796822 0.014612
vt 0.250000 0.010000
vt 0.750000 0.010000
vt 0.203178 0.014612
vt 0.703178 0.014612
vt 0.158156 0.028269
vt 0.658156 0.028269
vt 0.116663 0.050447
vt 0.616663 0.050447
vt 0.080294 0.080294
vt 0.580294 0.080294
vt 0.050447 0.116663
vt 0.550447 0.116663
vt 0.028269 0.158156
vt 0.528269 0.158156
vt 0.014612 0.203178
vt 0.514612 0.203178
vt 0.010000 0.250000
vt 0.510000 0.250000
vt 0.014612 0.296822
vt 0.514612 0.296822
vt 0.028269 0.341844
vt 0.528269 0.341844
vt 0.050447 0.383337
vt 0.550447 0.383337
vt 0.080294 0.419706
vt 0.580294 0.419706
vt 0.116663 0.449553
vt 0.616663 0.449553
vt 0.658156 0.471731
vt 0.158156 0.471731
vt 0.703178 0.485388
vt 0.203178 0.485388
vt 0.250000 0.250000
vt 0.625000 0.500000
vt 0.375000 0.500000
vt 0.625000 0.750000
vt 0.375000 0.750000
vt 0.875000 0.500000
vt 0.625000 0.250000
vt 0.125000 0.500000
vt 0.375000 0.250000
vt 0.875000 0.750000
vt 0.625000 1.000000
vt 0.625000 0.000000
vt 0.375000 1.000000
vt 0.375000 0.000000
vt 0.125000 0.750000
vt 0.750000 0.490000
vt 0.250000 0.490000
vt 0.296822 0.485388
vt 0.796822 0.485388
vt 0.341844 0.471731
vt 0.841844 0.471731
vt 0.383337 0.449553
vt 0.883337 0.449553
vt 0.419706 0.419706
vt 0.919706 0.419706
vt 0.449553 0.383337
vt 0.949553 0.383337
vt 0.471731 0.341844
vt 0.971731 0.341844
vt 0.485388 0.296822
vt 0.985388 0.296822
vt 0.490000 0.250000
vt 0.990000 0.250000
vt 0.485388 0.203178
vt 0.985388 0.203178
vt 0.471731 0.158156
vt 0.971731 0.158156
vt 0.449553 0.116663
vt 0.949553 0.116663
vt 0.419706 0.080294
vt 0.919706 0.080294
vt 0.383337 0.050447
vt 0.883337 0.050447
vt 0.341844 0.028269
vt 0.841844 0.028269
vt 0.296822 0.014612
vt 0.796822 0.014612
vt 0.250000 0.010000
vt 0.750000 0.010000
vt 0.203178 0.014612
vt 0.703178 0.014612
vt 0.158156 0.028269
vt 0.658156 0.028269
vt 0.116663 0.050447
vt 0.616663 0.050447
vt 0.080294 0.080294
vt 0.580294 0.080294
vt 0.050447 0.116663
vt 0.550447 0.116663
vt 0.028269 0.158156
vt 0.528269 0.158156
vt 0.014612 0.203178
vt 0.514612 0.203178
vt 0.010000 0.250000
vt 0.510000 0.250000
vt 0.014612 0.296822
vt 0.514612 0.296822
vt 0.028269 0.341844
vt 0.528269 0.341844
vt 0.050447 0.383337
vt 0.550447 0.383337
vt 0.080294 0.419706
vt 0.580294 0.419706
vt 0.116663 0.449553
vt 0.616663 0.449553
vt 0.658156 0.471731
vt 0.158156 0.471731
vt 0.703178 0.485388
vt 0.203178 0.485388
vt 0.250000 0.250000
vt 1.000000 0.500000
vt 0.000000 0.500000
vt 0.750000 0.490000
vt 1.000000 1.000000
vt 0.250000 0.490000
vt 0.000000 1.000000
vt 0.968750 0.500000
vt 0.796822 0.485388
vt 0.968750 1.000000
vt 0.296822 0.485388
vt 0.937500 0.500000
vt 0.841844 0.471731
vt 0.937500 1.000000
vt 0.341844 0.471731
vt 0.906250 0.500000
vt 0.883337 0.449553
vt 0.906250 1.000000
vt 0.383337 0.449553
vt 0.875000 0.500000
vt 0.919706 0.419706
vt 0.875000 1.000000
vt 0.419706 0.419706
vt 0.843750 0.500000
vt 0.949553 0.383337
vt 0.843750 1.000000
vt 0.449553 0.383337
vt 0.812500 0.500000
vt 0.971731 0.341844
vt 0.812500 1.000000
vt 0.471731 0.341844
vt 0.781250 0.500000
vt 0.985388 0.296822
vt 0.781250 1.000000
vt 0.485388 0.296822
vt 0.750000 0.500000
vt 0.990000 0.250000
vt 0.750000 1.000000
vt 0.490000 0.250000
vt 0.718750 0.500000
vt 0.985388 0.203178
vt 0.718750 1.000000
vt 0.485388 0.203178
vt 0.687500 0.500000
vt 0.971731 0.158156
vt 0.687500 1.000000
vt 0.471731 0.158156
vt 0.656250 0.500000
vt 0.949553 0.116663
vt 0.656250 1.000000
vt 0.449553 0.116663
vt 0.625000 0.500000
vt 0.919706 0.080294
vt 0.625000 1.000000
vt 0.419706 0.080294
vt 0.593750 0.500000
vt 0.883337 0.050447
vt 0.593750 1.000000
vt 0.383337 0.050447
vt 0.562500 0.500000
vt 0.841844 0.028269
vt 0.562500 1.000000
vt 0.341844 0.028269
vt 0.531250 0.500000
vt 0.796822 0.014612
vt 0.531250 1.000000
vt 0.296822 0.014612
vt 0.500000 0.500000
vt 0.750000 0.010000
vt 0.500000 1.000000
vt 0.250000 0.010000
vt 0.468750 0.500000
vt 0.703178 0.014612
vt 0.468750 1.000000
vt 0.203178 0.014612
vt 0.437500 0.500000
vt 0.658156 0.028269
vt 0.437500 1.000000
vt 0.158156 0.028269
vt 0.406250 0.500000
vt 0.616663 0.050447
vt 0.406250 1.000000
vt 0.116663 0.050447
vt 0.375000 0.500000
vt 0.580294 0.080294
vt 0.375000 1.000000
vt 0.080294 0.080294
vt 0.343750 0.500000
vt 0.550447 0.116663
vt 0.343750 1.000000
vt 0.050447 0.116663
vt 0.312500 0.500000
vt 0.528269 0.158156
vt 0.312500 1.000000
vt 0.028269 0.158156
vt 0.281250 0.500000
vt 0.514612 0.203178
vt 0.281250 1.000000
vt 0.014612 0.203178
vt 0.250000 0.500000
vt 0.510000 0.250000
vt 0.250000 1.000000
vt 0.010000 0.250000
vt 0.218750 0.500000
vt 0.514612 0.296822
vt 0.218750 1.000000
vt 0.014612 0.296822
vt 0.187500 0.500000
vt 0.528269 0.341844
vt 0.187500 1.000000
vt 0.028269 0.341844
vt 0.156250 0.500000
vt 0.550447 0.383337
vt 0.156250 1.000000
vt 0.050447 0.383337
vt 0.125000 0.500000
vt 0.580294 0.419706
vt 0.125000 1.000000
vt 0.080294 0.419706
vt 0.093750 0.500000
vt 0.616663 0.449553
vt 0.093750 1.000000
vt 0.116663 0.449553
vt 0.062500 0.500000
vt 0.658156 0.471731
vt 0.158156 0.471731
vt 0.062500 1.000000
vt 0.031250 0.500000
vt 0.703178 0.485388
vt 0.203178 0.485388
vt 0.031250 1.000000
vt 0.625000 0.500000
vt 0.375000 0.500000
vt 0.625000 0.750000
vt 0.375000 0.750000
vt 0.875000 0.500000
vt 0.625000 0.250000
vt 0.125000 0.500000
vt 0.375000 0.250000
vt 0.875000 0.750000
vt 0.625000 1.000000
vt 0.625000 0.000000
vt 0.375000 1.000000
vt 0.375000 0.000000
vt 0.125000 0.750000
s 0
usemtl Material
f 1/2/1 33/65/1 2/3/1
f 2/3/2 33/65/2 3/5/2
f 3/5/3 33/65/3 4/7/3
f 4/7/4 33/65/4 5/9/4
f 5/9/5 33/65/5 6/11/5
f 6/11/6 33/65/6 7/13/6
f 7/13/7 33/65/7 8/15/7
f 8/15/8 33/65/8 9/17/8
f 9/17/9 33/65/9 10/19/9
f 10/19/10 33/65/10 11/21/10
f 11/21/11 33/65/11 12/23/11
f 12/23/12 33/65/12 13/25/12
f 13/25/13 33/65/13 14/27/13
f 14/27/14 33/65/14 15/29/14
f 15/29/15 33/65/15 16/31/15
f 16/31/16 33/65/16 17/33/16
f 17/33/17 33/65/17 18/35/17
f 18/35/18 33/65/18 19/37/18
f 19/37/19 33/65/19 20/39/19
f 20/39/20 33/65/20 21/41/20
f 21/41/21 33/65/21 22/43/21
f 22/43/22 33/65/22 23/45/22
f 23/45/23 33/65/23 24/47/23
f 24/47/24 33/65/24 25/49/24
f 25/49/25 33/65/25 26/51/25
f 26/51/26 33/65/26 27/53/26
f 27/53/27 33/65/27 28/55/27
f 28/55/28 33/65/28 29/57/28
f 29/57/29 33/65/29 30/59/29
f 30/59/30 33/65/30 31/62/30
f 1/1/31 2/4/31 3/6/31 4/8/31 5/10/31 6/12/31 7/14/31 8/16/31 9/18/31 10/20/31 11/22/31 12/24/31 13/26/31 14/28/31 15/30/31 16/32/31 17/34/31 18/36/31 19/38/31 20/40/31 21/42/31 22/44/31 23/46/31 24/48/31 25/50/31 26/52/31 27/54/31 28/56/31 29/58/31 30/60/31 31/61/31 32/63/31
f 31/62/32 33/65/32 32/64/32
f 32/64/33 33/65/33 1/2/33
f 34/66/34 38/70/34 40/74/34 36/68/34
f 37/69/35 36/68/35 40/75/35 41/77/35
f 41/78/36 40/76/36 38/71/36 39/73/36
f 39/72/37 35/67/37 37/69/37 41/79/37
f 35/67/38 34/66/38 36/68/38 37/69/38
f 39/73/39 38/71/39 34/66/39 35/67/39
f 42/81/40 74/144/40 43/82/40
f 43/82/41 74/144/41 44/84/41
f 44/84/42 74/144/42 45/86/42
f 45/86/43 74/144/43 46/88/43
f 46/88/44 74/144/44 47/90/44
f 47/90/45 74/144/45 48/92/45
f 48/92/46 74/144/46 49/94/46
f 49/94/47 74/144/47 50/96/47
f 50/96/48 74/144/48 51/98/48
f 51/98/49 74/144/49 52/100/49
f 52/100/50 74/144/50 53/102/50
f 53/102/51 74/144/51 54/104/51
f 54/104/52 74/144/52 55/106/52
f 55/106/53 74/144/53 56/108/53
f 56/108/54 74/144/54 57/110/54
f 57/110/55 74/144/55 58/112/55
f 58/112/56 74/144/56 59/114/56
f 59/114/57 74/144/57 60/116/57
f 60/116/58 74/144/58 61/118/58
f 61/118/59 74/144/59 62/120/59
f 62/120/60 74/144/60 63/122/60
f 63/122/61 74/144/61 64/124/61
f 64/124/62 74/144/62 65/126/62
f 65/126/63 74/144/63 66/128/63
f 66/128/64 74/144/64 67/130/64
f 67/130/65 74/144/65 68/132/65
f 68/132/66 74/144/66 69/134/66
f 69/134/67 74/144/67 70/136/67
f 70/136/68 74/144/68 71/138/68
f 71/138/69 74/144/69 72/141/69
f 42/80/70 43/83/70 44/85/70 45/87/70 46/89/70 47/91/70 48/93/70 49/95/70 50/97/70 51/99/70 52/101/70 53/103/70 54/105/70 55/107/70 56/109/70 57/111/70 58/113/70 59/115/70 60/117/70 61/119/70 62/121/70 63/123/70 64/125/70 65/127/70 66/129/70 67/131/70 68/133/70 69/135/70 70/137/70 71/139/70 72/140/70 73/142/70
f 72/141/71 74/144/71 73/143/71
f 73/143/72 74/144/72 42/81/72
f 75/145/73 76/148/73 78/153/73 77/151/73
f 77/151/74 78/153/74 80/157/74 79/155/74
f 79/155/75 80/157/75 82/161/75 81/159/75
f 81/159/76 82/161/76 84/165/76 83/163/76
f 83/163/77 84/165/77 86/169/77 85/167/77
f 85/167/78 86/169/78 88/173/78 87/171/78
f 87/171/79 88/173/79 90/177/79 89/175/79
f 89/175/80 90/177/80 92/181/80 91/179/80
f 91/179/81 92/181/81 94/185/81 93/183/81
f 93/183/82 94/185/82 96/189/82 95/187/82
f 95/187/83 96/189/83 98/193/83 97/191/83
f 97/191/84 98/193/84 100/197/84 99/195/84
f 99/195/85 100/197/85 102/201/85 101/199/85
f 101/199/86 102/201/86 104/205/86 103/203/86
f 103/203/87 104/205/87 106/209/87 105/207/87
f 105/207/88 106/209/88 108/213/88 107/211/88
f 107/211/89 108/213/89 110/217/89 109/215/89
f 109/215/90 110/217/90 112/221/90 111/219/90
f 111/219/91 112/221/91 114/225/91 113/223/91
f 113/223/92 114/225/92 116/229/92 115/227/92
f 115/227/93 116/229/93 118/233/93 117/231/93
f 117/231/94 118/233/94 120/237/94 119/235/94
f 119/235/95 120/237/95 122/241/95 121/239/95
f 121/239/96 122/241/96 124/245/96 123/243/96
f 123/243/97 124/245/97 126/249/97 125/247/97
f 125/247/98 126/249/98 128/253/98 127/251/98
f 127/251/99 128/253/99 130/257/99 129/255/99
f 129/255/100 130/257/100 132/261/100 131/259/100
f 131/259/101 132/261/101 134/265/101 133/263/101
f 133/263/102 134/265/102 136/270/102 135/267/102
f 78/154/35 76/149/35 138/273/35 136/269/35 134/266/35 132/262/35 130/258/35 128/254/35 126/250/35 124/246/35 122/242/35 120/238/35 118/234/35 116/230/35 114/226/35 112/222/35 110/218/35 108/214/35 106/210/35 104/206/35 102/202/35 100/198/35 98/194/35 96/190/35 94/186/35 92/182/35 90/178/35 88/174/35 86/170/35 84/166/35 82/162/35 80/158/35
f 135/267/103 136/270/103 138/274/103 137/271/103
f 137/271/104 138/274/104 76/150/104 75/146/104
f 75/147/39 77/152/39 79/156/39 81/160/39 83/164/39 85/168/39 87/172/39 89/176/39 91/180/39 93/184/39 95/188/39 97/192/39 99/196/39 101/200/39 103/204/39 105/208/39 107/212/39 109/216/39 111/220/39 113/224/39 115/228/39 117/232/39 119/236/39 121/240/39 123/244/39 125/248/39 127/252/39 129/256/39 131/260/39 133/264/39 135/268/39 137/272/39
usemtl Material.002
f 139/275/38 143/279/38 145/283/38 141/277/38
f 142/278/35 141/277/35 145/284/35 146/286/35
f 146/287/34 145/285/34 143/280/34 144/282/34
f 144/281/36 140/276/36 142/278/36 146/288/36
f 140/276/37 139/275/37 141/277/37 142/278/37
f 144/282/39 143/280/39 139/275/39 140/276/39
