# Blender 3.5.1
# www.blender.org
mtllib dalam_mesin_atas_hitam.mtl
o dalam_mesin_atas_hitam
v 44.332413 2.484597 75.610703
v 44.332565 2.512440 75.634987
v 44.332470 2.488127 75.623886
v 44.332523 2.497337 75.631912
v 44.332523 2.619945 75.634987
v 44.331635 2.647846 75.610725
v 44.332298 2.635051 75.631920
v 44.331955 2.644290 75.623901
v 44.330288 2.493238 75.242981
v 44.330387 2.497586 75.257309
v 44.326202 2.643115 75.243042
v 44.331097 2.568177 75.442017
v 44.331268 2.538937 75.447830
v 44.331177 2.553271 75.443489
v 44.330872 2.583083 75.443489
v 44.329559 2.553271 75.303024
v 44.329178 2.568177 75.304504
v 44.328747 2.583083 75.303040
v 44.328293 2.597416 75.298698
v 44.329884 2.538937 75.298676
v 44.330139 2.525728 75.291611
v 44.327824 2.610626 75.291641
v 44.330311 2.514149 75.282104
v 44.327362 2.622204 75.282150
v 44.330395 2.504647 75.270523
v 44.326931 2.631706 75.270576
v 44.326538 2.638767 75.257370
v 44.331371 2.525728 75.454895
v 44.330547 2.597416 75.447845
v 44.331474 2.514149 75.464394
v 44.331692 2.497586 75.489182
v 44.331585 2.504647 75.475975
v 44.331875 2.491770 75.518425
v 44.331951 2.493238 75.533333
v 44.330292 2.610626 75.454910
v 44.332008 2.497586 75.547661
v 44.331787 2.493238 75.503517
v 44.330044 2.638767 75.489204
v 44.330143 2.643115 75.503540
v 44.330326 2.644583 75.518448
v 44.330593 2.643115 75.533348
v 44.330036 2.631707 75.475998
v 44.330120 2.622204 75.464417
v 44.330929 2.638767 75.547684
v 44.332062 2.514149 75.572456
v 44.332047 2.504647 75.560875
v 44.331547 2.622204 75.572464
v 44.331848 2.583083 75.593369
v 44.331757 2.597416 75.589020
v 44.332058 2.525728 75.581955
v 44.331654 2.610626 75.581963
v 44.332035 2.538937 75.589020
v 44.331322 2.631706 75.560883
v 44.331989 2.553271 75.593369
v 44.331928 2.568177 75.594841
v 44.372616 2.493238 75.242340
v 44.372715 2.497586 75.256676
v 44.368530 2.643115 75.242401
v 44.373425 2.568177 75.441383
v 44.373596 2.538937 75.447197
v 44.373505 2.553271 75.442848
v 44.373199 2.583083 75.442856
v 44.371887 2.553271 75.302391
v 44.371506 2.568177 75.303864
v 44.371075 2.583083 75.302406
v 44.370621 2.597416 75.298065
v 44.372211 2.538937 75.298035
v 44.372467 2.525728 75.290970
v 44.370152 2.610626 75.291008
v 44.372639 2.514149 75.281464
v 44.369694 2.622204 75.281509
v 44.372723 2.504647 75.269882
v 44.369259 2.631706 75.269936
v 44.368866 2.638767 75.256729
v 44.373699 2.525728 75.454254
v 44.372875 2.597416 75.447212
v 44.373802 2.514149 75.463760
v 44.374020 2.497586 75.488548
v 44.373913 2.504647 75.475334
v 44.374203 2.491770 75.517784
v 44.374279 2.493238 75.532692
v 44.372620 2.610626 75.454277
v 44.374336 2.497586 75.547028
v 44.374115 2.493238 75.502884
v 44.372372 2.638767 75.488571
v 44.372471 2.643115 75.502907
v 44.372654 2.644583 75.517807
v 44.372921 2.643115 75.532715
v 44.372364 2.631707 75.475357
v 44.372448 2.622204 75.463783
v 44.373257 2.638767 75.547043
v 44.374390 2.514149 75.571815
v 44.374374 2.504647 75.560234
v 44.373875 2.622204 75.571823
v 44.374176 2.583083 75.592735
v 44.374084 2.597416 75.588387
v 44.374386 2.525728 75.581322
v 44.373981 2.610626 75.581329
v 44.374363 2.538937 75.588379
v 44.373650 2.631706 75.560249
v 44.374317 2.553271 75.592735
v 44.374256 2.568177 75.594200
v 44.330360 2.485115 75.232925
v 44.325928 2.647683 75.232994
v 44.321053 2.484597 74.855263
v 44.320480 2.512440 74.830978
v 44.320717 2.488127 74.842087
v 44.320526 2.497337 74.834061
v 44.320438 2.619945 74.830978
v 44.320274 2.647846 74.855263
v 44.320301 2.635051 74.834053
v 44.320198 2.644290 74.842079
v 44.329987 2.493238 75.222885
v 44.330162 2.492249 75.232933
v 44.329655 2.497586 75.208557
v 44.326023 2.644104 75.232994
v 44.325901 2.643115 75.222946
v 44.324814 2.568177 75.023911
v 44.324806 2.538937 75.018089
v 44.324844 2.553271 75.022438
v 44.324539 2.583083 75.022446
v 44.327454 2.553271 75.162880
v 44.327026 2.568177 75.161423
v 44.326641 2.583083 75.162895
v 44.326317 2.597416 75.167252
v 44.327908 2.538937 75.167229
v 44.328377 2.525728 75.174278
v 44.326061 2.610626 75.174316
v 44.328831 2.514149 75.183777
v 44.325886 2.622204 75.183823
v 44.329266 2.504647 75.195351
v 44.325802 2.631706 75.195404
v 44.325806 2.638767 75.208611
v 44.324696 2.525728 75.011032
v 44.324085 2.597416 75.018105
v 44.324516 2.514149 75.001534
v 44.323986 2.497586 74.976746
v 44.324280 2.504647 74.989952
v 44.323292 2.491770 74.947517
v 44.322918 2.493238 74.932617
v 44.323620 2.610626 75.011047
v 44.322544 2.497586 74.918282
v 44.323654 2.493238 74.962418
v 44.322342 2.638767 74.976776
v 44.322006 2.643115 74.962440
v 44.321743 2.644583 74.947540
v 44.321560 2.643115 74.932632
v 44.322731 2.631707 74.989975
v 44.323162 2.622204 75.001549
v 44.321465 2.638767 74.918297
v 44.321854 2.514149 74.893501
v 44.322186 2.504647 74.905075
v 44.321342 2.622204 74.893509
v 44.321011 2.583083 74.872604
v 44.321049 2.597416 74.876953
v 44.321568 2.525728 74.884003
v 44.321159 2.610626 74.884010
v 44.321327 2.538937 74.876945
v 44.321461 2.631706 74.905090
v 44.321156 2.553271 74.872604
v 44.321045 2.568177 74.871132
v 44.372688 2.485115 75.232292
v 44.368256 2.647683 75.232361
v 44.372314 2.493238 75.222252
v 44.372494 2.492249 75.232292
v 44.371983 2.497586 75.207916
v 44.368351 2.644104 75.232353
v 44.368229 2.643115 75.222313
v 44.367142 2.568177 75.023270
v 44.367134 2.538937 75.017456
v 44.367172 2.553271 75.021805
v 44.366867 2.583083 75.021805
v 44.369781 2.553271 75.162247
v 44.369354 2.568177 75.160782
v 44.368969 2.583083 75.162262
v 44.368641 2.597416 75.166611
v 44.370235 2.538937 75.166588
v 44.370705 2.525728 75.173645
v 44.368389 2.610626 75.173676
v 44.371159 2.514149 75.183144
v 44.368214 2.622204 75.183182
v 44.371593 2.504647 75.194717
v 44.368130 2.631706 75.194763
v 44.368134 2.638767 75.207977
v 44.367023 2.525728 75.010399
v 44.366413 2.597416 75.017464
v 44.366844 2.514149 75.000893
v 44.366314 2.497586 74.976112
v 44.366608 2.504647 74.989319
v 44.365620 2.491770 74.946877
v 44.365246 2.493238 74.931976
v 44.365948 2.610626 75.010414
v 44.364872 2.497586 74.917648
v 44.365982 2.493238 74.961784
v 44.364670 2.638767 74.976135
v 44.364334 2.643115 74.961807
v 44.364071 2.644583 74.946899
v 44.363888 2.643115 74.931999
v 44.365059 2.631707 74.989342
v 44.365490 2.622204 75.000916
v 44.363792 2.638767 74.917664
v 44.364182 2.514149 74.892868
v 44.364513 2.504647 74.904442
v 44.363667 2.622204 74.892876
v 44.363338 2.583083 74.871971
v 44.363380 2.597416 74.876312
v 44.363895 2.525728 74.883369
v 44.363487 2.610626 74.883377
v 44.363655 2.538937 74.876312
v 44.363789 2.631706 74.904457
v 44.363483 2.553271 74.871964
v 44.363373 2.568177 74.870499
vn 0.9999 0.0087 -0.0085
vn 0.9996 0.0235 -0.0152
vn -0.0150 -0.0980 -0.9951
vn -0.0095 0.7730 -0.6343
vn -0.0116 -0.6344 -0.7729
vn 0.0150 -0.0980 0.9951
vn -0.0071 0.8819 -0.4713
vn -0.0144 0.2903 -0.9568
vn 0.0150 0.0980 0.9951
vn -0.0116 0.6344 -0.7729
vn -0.0132 -0.4714 -0.8818
vn 0.0144 0.2903 0.9568
vn 0.0044 0.9569 0.2903
vn -0.0095 -0.7730 -0.6343
vn 0.0144 -0.2903 0.9568
vn 0.0095 -0.7730 0.6343
vn -0.0071 -0.8819 -0.4714
vn 0.0133 -0.4714 0.8818
vn 0.0044 -0.9569 0.2903
vn 0.0133 0.4714 0.8818
vn 0.0071 -0.8819 0.4714
vn -0.0133 0.4714 -0.8818
vn 0.0116 0.6344 0.7729
vn 0.0116 -0.6344 0.7729
vn 0.0015 -0.9952 0.0980
vn 0.0015 -0.9952 0.0979
vn -0.0015 -0.9952 -0.0980
vn -0.0044 -0.9569 -0.2902
vn 0.0095 0.7730 0.6343
vn 0.0132 -0.4714 0.8818
vn 0.0015 0.9952 0.0979
vn -0.0044 0.9569 -0.2903
vn 0.0071 0.8819 0.4714
vn -0.0144 -0.2903 -0.9568
vn -0.0015 0.9952 -0.0980
vn -0.0150 0.0980 -0.9951
vn 0.0015 0.9952 0.0980
vn 0.9995 0.0273 -0.0151
vn 0.9999 0.0094 -0.0074
vn 0.9997 0.0087 -0.0216
vn 0.9996 0.0235 -0.0149
vn 0.0071 0.8819 0.4713
vn -0.0150 -0.0000 -0.9999
vn -0.0133 -0.4714 -0.8818
vn -0.0044 -0.9569 -0.2903
vn -0.0071 -0.8819 -0.4713
vn 0.0132 0.4714 0.8818
vn -0.0150 0.0001 -0.9999
vn -0.0015 0.9952 -0.0979
vn -0.0071 0.8819 -0.4714
vn 0.9995 0.0273 -0.0149
vn 0.9997 0.0094 -0.0226
s 0
usemtl None.002
f 5//1 2//1 4//1 3//1 1//1 103//1 114//1 9//1 10//1 25//1 23//1 21//1 20//1 16//1 17//1 12//1 14//1 13//1 28//1 30//1 32//1 31//1 37//1 33//1 34//1 36//1 46//1 45//1 50//1 52//1 54//1 55//1
f 48//2 49//2 51//2 47//2 53//2 44//2 41//2 40//2 39//2 38//2 42//2 43//2 35//2 29//2 15//2 12//2 17//2 18//2 19//2 22//2 24//2 26//2 27//2 11//2 116//2 104//2 6//2 8//2 7//2 5//2 55//2
f 14//3 12//3 59//3 61//3
f 43//4 42//4 89//4 90//4
f 30//5 28//5 75//5 77//5
f 55//6 54//6 101//6 102//6
f 17//6 16//6 63//6 64//6
f 42//7 38//7 85//7 89//7
f 15//8 29//8 76//8 62//8
f 48//9 55//9 102//9 95//9
f 18//9 17//9 64//9 65//9
f 35//10 43//10 90//10 82//10
f 28//11 13//11 60//11 75//11
f 19//12 18//12 65//12 66//12
f 41//13 44//13 91//13 88//13
f 32//14 30//14 77//14 79//14
f 16//15 20//15 67//15 63//15
f 45//16 46//16 93//16 92//16
f 31//17 32//17 79//17 78//17
f 20//18 21//18 68//18 67//18
f 49//12 48//12 95//12 96//12
f 36//19 34//19 81//19 83//19
f 22//20 19//20 66//20 69//20
f 46//21 36//21 83//21 93//21
f 29//22 35//22 82//22 76//22
f 24//23 22//23 69//23 71//23
f 50//24 45//24 92//24 97//24
f 34//25 33//25 80//25 81//25
f 21//24 23//24 70//24 68//24
f 51//20 49//20 96//20 98//20
f 9//26 114//26 165//26 56//26
f 33//27 37//27 84//27 80//27
f 23//16 25//16 72//16 70//16
f 47//23 51//23 98//23 94//23
f 10//19 9//19 56//19 57//19
f 37//28 31//28 78//28 84//28
f 26//29 24//29 71//29 73//29
f 52//30 50//30 97//30 99//30
f 116//31 11//31 58//31 167//31
f 38//32 39//32 86//32 85//32
f 27//33 26//33 73//33 74//33
f 53//29 47//29 94//29 100//29
f 13//34 14//34 61//34 60//34
f 39//35 40//35 87//35 86//35
f 25//21 10//21 57//21 72//21
f 44//33 53//33 100//33 91//33
f 12//36 15//36 62//36 59//36
f 40//37 41//37 88//37 87//37
f 11//13 27//13 74//13 58//13
f 54//15 52//15 99//15 101//15
f 167//38 58//38 74//38 73//38 71//38 69//38 66//38 65//38 64//38 63//38 67//38 68//38 70//38 72//38 57//38 56//38 165//38 162//38 163//38
f 60//39 61//39 59//39 62//39 76//39 82//39 90//39 89//39 85//39 86//39 87//39 88//39 91//39 100//39 94//39 98//39 96//39 95//39 102//39 101//39 99//39 97//39 92//39 93//39 83//39 81//39 80//39 84//39 78//39 79//39 77//39 75//39
f 109//40 161//40 160//40 158//40 156//40 151//40 152//40 142//40 140//40 139//40 143//40 137//40 138//40 136//40 134//40 119//40 120//40 118//40 123//40 122//40 126//40 127//40 129//40 131//40 115//40 113//40 114//40 103//40 105//40 107//40 108//40 106//40
f 154//41 161//41 109//41 111//41 112//41 110//41 104//41 116//41 117//41 133//41 132//41 130//41 128//41 125//41 124//41 123//41 118//41 121//41 135//41 141//41 149//41 148//41 144//41 145//41 146//41 147//41 150//41 159//41 153//41 157//41 155//41
f 120//6 171//6 169//6 118//6
f 149//29 200//29 199//29 148//29
f 136//24 187//24 185//24 134//24
f 161//3 212//3 211//3 160//3
f 123//3 174//3 173//3 122//3
f 148//42 199//42 195//42 144//42
f 121//12 172//12 186//12 135//12
f 154//36 205//36 212//36 161//36
f 124//36 175//36 174//36 123//36
f 141//23 192//23 200//23 149//23
f 134//30 185//30 170//30 119//30
f 114//43 165//43 162//43 103//43
f 125//8 176//8 175//8 124//8
f 147//32 198//32 201//32 150//32
f 138//16 189//16 187//16 136//16
f 122//34 173//34 177//34 126//34
f 151//14 202//14 203//14 152//14
f 137//21 188//21 189//21 138//21
f 126//44 177//44 178//44 127//44
f 155//8 206//8 205//8 154//8
f 142//45 193//45 191//45 140//45
f 128//22 179//22 176//22 125//22
f 152//46 203//46 193//46 142//46
f 135//47 186//47 192//47 141//47
f 130//10 181//10 179//10 128//10
f 156//5 207//5 202//5 151//5
f 104//48 163//48 167//48 116//48
f 140//27 191//27 190//27 139//27
f 127//5 178//5 180//5 129//5
f 157//22 208//22 206//22 155//22
f 113//27 164//27 165//27 114//27
f 139//25 190//25 194//25 143//25
f 129//14 180//14 182//14 131//14
f 153//10 204//10 208//10 157//10
f 115//45 166//45 164//45 113//45
f 143//19 194//19 188//19 137//19
f 132//4 183//4 181//4 130//4
f 158//44 209//44 207//44 156//44
f 116//49 167//49 168//49 117//49
f 144//13 195//13 196//13 145//13
f 133//50 184//50 183//50 132//50
f 159//4 210//4 204//4 153//4
f 119//15 170//15 171//15 120//15
f 145//37 196//37 197//37 146//37
f 131//17 182//17 166//17 115//17
f 150//50 201//50 210//50 159//50
f 118//9 169//9 172//9 121//9
f 146//35 197//35 198//35 147//35
f 117//32 168//32 184//32 133//32
f 160//34 211//34 209//34 158//34
f 167//51 163//51 162//51 165//51 164//51 166//51 182//51 180//51 178//51 177//51 173//51 174//51 175//51 176//51 179//51 181//51 183//51 184//51 168//51
f 170//52 185//52 187//52 189//52 188//52 194//52 190//52 191//52 193//52 203//52 202//52 207//52 209//52 211//52 212//52 205//52 206//52 208//52 204//52 210//52 201//52 198//52 197//52 196//52 195//52 199//52 200//52 192//52 186//52 172//52 169//52 171//52
