# Blender 3.5.1
# www.blender.org
mtllib jendela.mtl
o jendela
v 38.590034 -0.167573 75.485344
v 38.590034 0.043214 75.749115
v 38.478970 0.043214 75.485344
v 38.590034 -0.105835 75.671860
v 38.525913 -0.078484 75.637634
v 38.511501 0.043214 75.671860
v 38.511501 -0.105835 75.485344
v 38.590034 0.481996 75.749115
v 38.590034 0.692783 75.485344
v 38.478970 0.481996 75.485344
v 38.590034 0.631045 75.671860
v 38.525913 0.603694 75.637634
v 38.511501 0.631045 75.485344
v 38.511501 0.481996 75.671860
v 38.590034 -0.167573 74.936272
v 38.478970 0.043214 74.936272
v 38.590034 0.043214 74.672501
v 38.511501 -0.105835 74.936272
v 38.525913 -0.078484 74.783981
v 38.511501 0.043214 74.749756
v 38.590034 -0.105835 74.749756
v 38.590034 0.692783 74.936272
v 38.590034 0.481996 74.672501
v 38.478970 0.481996 74.936272
v 38.590034 0.631045 74.749756
v 38.525913 0.603694 74.783981
v 38.511501 0.481996 74.749756
v 38.511501 0.631045 74.936272
v 38.821236 -0.167573 75.485344
v 38.932301 0.043214 75.485344
v 38.821236 0.043214 75.749115
v 38.899773 -0.105835 75.485344
v 38.885361 -0.078484 75.637634
v 38.899773 0.043214 75.671860
v 38.821236 -0.105835 75.671860
v 38.821236 0.692783 75.485344
v 38.821236 0.481996 75.749115
v 38.932301 0.481996 75.485344
v 38.821236 0.631045 75.671860
v 38.885361 0.603694 75.637634
v 38.899773 0.481996 75.671860
v 38.899773 0.631045 75.485344
v 38.821236 -0.167573 74.936272
v 38.821236 0.043214 74.672501
v 38.932301 0.043214 74.936272
v 38.821236 -0.105835 74.749756
v 38.885361 -0.078484 74.783981
v 38.899773 0.043214 74.749756
v 38.899773 -0.105835 74.936272
v 38.821236 0.692783 74.936272
v 38.932301 0.481996 74.936272
v 38.821236 0.481996 74.672501
v 38.899773 0.631045 74.936272
v 38.885361 0.603694 74.783981
v 38.899773 0.481996 74.749756
v 38.821236 0.631045 74.749756
vn 0.3942 -0.2077 0.8952
vn 0.3942 0.2077 0.8952
vn -0.3942 0.2077 0.8952
vn -0.3942 -0.2077 0.8952
vn 0.9923 -0.0969 -0.0775
vn 0.9923 0.0969 -0.0775
vn 0.9923 0.0969 0.0775
vn 0.9923 -0.0969 0.0775
vn 0.3288 0.9342 -0.1384
vn -0.3288 0.9342 -0.1384
vn -0.3288 0.9342 0.1384
vn 0.3288 0.9342 0.1384
vn -0.9923 -0.0969 0.0775
vn -0.9923 0.0969 0.0775
vn -0.9923 0.0969 -0.0775
vn -0.9923 -0.0969 -0.0775
vn -0.3942 -0.2077 -0.8952
vn -0.3942 0.2077 -0.8952
vn 0.3942 0.2077 -0.8952
vn 0.3942 -0.2077 -0.8952
vn -0.3288 -0.9342 0.1384
vn -0.2980 -0.9110 0.2850
vn -0.5547 -0.7986 0.2336
vn -0.5928 -0.7978 0.1099
vn -0.6726 -0.1560 0.7234
vn -0.6200 -0.3267 0.7133
vn -0.3450 -0.4129 0.8429
vn -0.9769 -0.2015 0.0709
vn -0.9709 -0.1872 0.1496
vn -0.9827 -0.0893 0.1620
vn -0.3450 0.4129 0.8429
vn -0.6200 0.3267 0.7133
vn -0.6726 0.1560 0.7234
vn -0.5928 0.7978 0.1099
vn -0.5547 0.7986 0.2336
vn -0.2980 0.9110 0.2850
vn -0.9827 0.0893 0.1620
vn -0.9709 0.1872 0.1496
vn -0.9769 0.2015 0.0709
vn -0.3288 -0.9342 -0.1384
vn -0.5928 -0.7978 -0.1099
vn -0.5547 -0.7986 -0.2336
vn -0.2980 -0.9110 -0.2850
vn -0.9827 -0.0893 -0.1620
vn -0.9709 -0.1872 -0.1496
vn -0.9769 -0.2015 -0.0709
vn -0.3450 -0.4129 -0.8429
vn -0.6200 -0.3267 -0.7133
vn -0.6726 -0.1560 -0.7234
vn -0.2980 0.9110 -0.2850
vn -0.5547 0.7986 -0.2336
vn -0.5928 0.7978 -0.1099
vn -0.6726 0.1560 -0.7234
vn -0.6200 0.3267 -0.7133
vn -0.3450 0.4129 -0.8429
vn -0.9769 0.2015 -0.0709
vn -0.9709 0.1872 -0.1496
vn -0.9827 0.0893 -0.1620
vn 0.3288 -0.9342 0.1384
vn 0.5928 -0.7978 0.1099
vn 0.5547 -0.7986 0.2336
vn 0.2980 -0.9110 0.2850
vn 0.9827 -0.0893 0.1620
vn 0.9709 -0.1872 0.1496
vn 0.9769 -0.2015 0.0709
vn 0.3450 -0.4129 0.8429
vn 0.6200 -0.3267 0.7133
vn 0.6726 -0.1560 0.7234
vn 0.2980 0.9110 0.2850
vn 0.5547 0.7986 0.2336
vn 0.5928 0.7978 0.1099
vn 0.6726 0.1560 0.7234
vn 0.6200 0.3267 0.7133
vn 0.3450 0.4129 0.8429
vn 0.9769 0.2015 0.0712
vn 0.9709 0.1872 0.1496
vn 0.9827 0.0893 0.1620
vn 0.3288 -0.9342 -0.1384
vn 0.2980 -0.9110 -0.2850
vn 0.5547 -0.7986 -0.2336
vn 0.5928 -0.7978 -0.1099
vn 0.6726 -0.1560 -0.7234
vn 0.6200 -0.3267 -0.7133
vn 0.3450 -0.4129 -0.8429
vn 0.9769 -0.2015 -0.0712
vn 0.9709 -0.1872 -0.1496
vn 0.9827 -0.0893 -0.1620
vn 0.5928 0.7978 -0.1099
vn 0.5547 0.7986 -0.2336
vn 0.2980 0.9110 -0.2850
vn 0.9827 0.0893 -0.1620
vn 0.9709 0.1872 -0.1496
vn 0.9769 0.2015 -0.0709
vn 0.3450 0.4129 -0.8429
vn 0.6200 0.3267 -0.7133
vn 0.6726 0.1560 -0.7234
vt 0.186250 0.688750
vt 0.436250 0.938750
vt 0.436250 0.061250
vt 0.186250 0.750000
vt 0.375000 0.938750
vt 0.150887 0.750000
vt 0.400887 1.000000
vt 0.375000 0.025887
vt 0.436250 1.000000
vt 0.436250 0.000000
vt 0.125000 0.688750
vt 0.375000 0.061250
vt 0.563750 0.938750
vt 0.813750 0.688750
vt 0.563750 0.061250
vt 0.813750 0.750000
vt 0.625000 0.938750
vt 0.625000 0.974113
vt 0.875000 0.724113
vt 0.599113 0.000000
vt 0.875000 0.688750
vt 0.625000 0.061250
vt 0.563750 1.000000
vt 0.563750 0.000000
vt 0.186250 0.561250
vt 0.436250 0.188750
vt 0.436250 0.311250
vt 0.125000 0.561250
vt 0.375000 0.188750
vt 0.125000 0.525887
vt 0.400887 0.250000
vt 0.375000 0.275887
vt 0.436250 0.250000
vt 0.186250 0.500000
vt 0.375000 0.311250
vt 0.813750 0.561250
vt 0.563750 0.311250
vt 0.563750 0.188750
vt 0.813750 0.500000
vt 0.625000 0.311250
vt 0.849113 0.500000
vt 0.599113 0.250000
vt 0.625000 0.224113
vt 0.563750 0.250000
vt 0.875000 0.561250
vt 0.625000 0.188750
vt 0.313750 0.688750
vt 0.436250 0.688750
vt 0.436250 0.811250
vt 0.375000 0.688750
vt 0.383629 0.750000
vt 0.436250 0.750000
vt 0.313750 0.750000
vt 0.375000 0.811250
vt 0.686250 0.688750
vt 0.563750 0.811250
vt 0.563750 0.688750
vt 0.686250 0.750000
vt 0.625000 0.811250
vt 0.625000 0.741371
vt 0.563750 0.750000
vt 0.625000 0.688750
vt 0.313750 0.561250
vt 0.436250 0.438750
vt 0.436250 0.561250
vt 0.313750 0.500000
vt 0.375000 0.438750
vt 0.375000 0.508629
vt 0.436250 0.500000
vt 0.375000 0.561250
vt 0.686250 0.561250
vt 0.563750 0.561250
vt 0.563750 0.438750
vt 0.625000 0.561250
vt 0.616371 0.500000
vt 0.563750 0.500000
vt 0.686250 0.500000
vt 0.625000 0.438750
s 1
usemtl Material.037
f 31/49/1 37/56/2 8/13/3 2/2/4
f 45/65/5 51/72/6 38/57/7 30/48/8
f 50/71/9 22/36/10 9/14/11 36/55/12
f 3/3/13 10/15/14 24/38/15 16/26/16
f 17/27/17 23/37/18 52/73/19 44/64/20
f 1/1/21 4/4/22 5/6/23 7/11/24
f 2/2/4 6/9/25 5/7/26 4/5/27
f 3/3/13 7/12/28 5/8/29 6/10/30
f 8/13/3 11/17/31 12/18/32 14/23/33
f 9/14/11 13/21/34 12/19/35 11/16/36
f 10/15/14 14/24/37 12/20/38 13/22/39
f 15/25/40 18/28/41 19/30/42 21/34/43
f 16/26/16 20/33/44 19/31/45 18/29/46
f 17/27/17 21/35/47 19/32/48 20/33/49
f 22/36/10 25/39/50 26/41/51 28/45/52
f 23/37/18 27/44/53 26/42/54 25/40/55
f 24/38/15 28/46/56 26/43/57 27/44/58
f 29/47/59 32/50/60 33/51/61 35/53/62
f 30/48/8 34/52/63 33/51/64 32/50/65
f 31/49/1 35/54/66 33/51/67 34/52/68
f 36/55/12 39/58/69 40/60/70 42/62/71
f 37/56/2 41/61/72 40/60/73 39/59/74
f 38/57/7 42/62/75 40/60/76 41/61/77
f 43/63/78 46/66/79 47/68/80 49/70/81
f 44/64/20 48/69/82 47/68/83 46/67/84
f 45/65/5 49/70/85 47/68/86 48/69/87
f 50/71/9 53/74/88 54/75/89 56/77/90
f 51/72/6 55/76/91 54/75/92 53/74/93
f 52/73/19 56/78/94 54/75/95 55/76/96
f 15/25/40 1/1/21 7/11/24 18/28/41
f 18/29/46 7/12/28 3/3/13 16/26/16
f 2/2/4 8/13/3 14/23/33 6/9/25
f 6/10/30 14/24/37 10/15/14 3/3/13
f 9/14/11 22/36/10 28/45/52 13/21/34
f 13/22/39 28/46/56 24/38/15 10/15/14
f 23/37/18 17/27/17 20/33/49 27/44/53
f 27/44/58 20/33/44 16/26/16 24/38/15
f 43/63/78 15/25/40 21/34/43 46/66/79
f 46/67/84 21/35/47 17/27/17 44/64/20
f 22/36/10 50/71/9 56/77/90 25/39/50
f 25/40/55 56/78/94 52/73/19 23/37/18
f 51/72/6 45/65/5 48/69/87 55/76/91
f 55/76/96 48/69/82 44/64/20 52/73/19
f 29/47/59 43/63/78 49/70/81 32/50/60
f 32/50/65 49/70/85 45/65/5 30/48/8
f 50/71/9 36/55/12 42/62/71 53/74/88
f 53/74/93 42/62/75 38/57/7 51/72/6
f 37/56/2 31/49/1 34/52/68 41/61/72
f 41/61/77 34/52/63 30/48/8 38/57/7
f 1/1/21 29/47/59 35/53/62 4/4/22
f 4/5/27 35/54/66 31/49/1 2/2/4
f 36/55/12 9/14/11 11/16/36 39/58/69
f 39/59/74 11/17/31 8/13/3 37/56/2
f 15/25/40 43/63/78 29/47/59 1/1/21
