# Blender 3.5.1
# www.blender.org
mtllib DTRamp.mtl
o Cylinder.004
v -4.468318 0.026031 -3.201629
v -4.468318 0.117875 -3.201629
v -3.881174 0.026031 -3.931877
v -3.881174 0.092680 -3.931877
v -3.160286 0.026031 -4.532218
v -3.160286 0.075211 -4.532218
v -2.333360 0.026031 -4.979579
v -2.333360 0.053556 -4.979579
v -1.432172 0.026031 -5.256769
v -1.432172 0.064068 -5.256769
v -0.491354 0.026031 -5.353137
v -0.491354 0.066870 -5.353137
v 0.452938 0.026031 -5.264977
v 0.452938 0.064441 -5.264977
v 1.364416 0.026031 -4.995679
v 1.364416 0.052093 -4.995679
v 2.208051 0.026031 -4.555592
v 2.208051 0.025358 -4.555592
v -2.729710 0.065239 -3.678795
v -2.729710 0.016416 -3.678795
v -3.329834 0.081388 -3.196361
v -3.329834 0.017057 -3.196361
v -3.777033 0.121682 -2.579377
v -3.777033 0.022871 -2.579377
v -0.701545 1.142576 3.295963
v -0.701545 0.128916 3.295963
v 0.066423 1.134482 3.217300
v 0.066423 -0.016472 3.217300
v 1.354325 -0.031633 -3.892056
v 1.354325 -0.032878 -3.892056
v 0.665684 0.031756 -4.251289
v 0.665684 0.003576 -4.251289
v 0.080521 0.034366 -4.367604
v 0.080521 0.003821 -4.367604
v -0.530826 0.014632 -4.335670
v -0.530826 -0.010126 -4.335670
v -1.221843 -0.027229 -4.206867
v -1.221843 -0.077250 -4.206867
v -1.965161 0.033027 -3.985619
v -1.965161 0.001772 -3.985619
v 0.630277 0.026031 4.153892
v 0.630277 1.154868 4.153892
v -0.310541 0.026031 4.250258
v -0.310541 1.083373 4.250258
v -1.254832 0.026031 4.162099
v -1.254832 0.972168 4.162099
v -2.166310 0.026031 3.892801
v -2.166310 0.818319 3.892801
v -3.009946 0.026031 3.452713
v -3.009946 0.705839 3.452713
v -3.753319 0.026031 2.858748
v -3.753319 0.579107 2.858748
v -4.367863 0.026031 2.133732
v -4.367863 0.482921 2.133732
v -4.829960 0.026031 1.305526
v -4.829960 0.372383 1.305526
v -5.121853 0.026031 0.405957
v -5.121853 0.300719 0.405957
v -5.232324 0.026031 -0.530403
v -5.232324 0.221183 -0.530403
v -5.157128 0.026031 -1.467572
v -5.157128 0.158059 -1.467572
v -4.899155 0.026031 -2.369534
v -4.899155 0.135413 -2.369534
v -1.472350 0.128916 3.224000
v -1.472350 0.959454 3.224000
v -2.216369 0.128916 3.004178
v -2.216369 0.789461 3.004178
v -2.905010 0.128916 2.644945
v -2.905010 0.676113 2.644945
v -3.197387 0.128916 2.364973
v -3.197387 0.581972 2.364973
v -3.527308 0.128916 1.885045
v -3.527308 0.456568 1.885045
v -3.797142 0.007446 1.278955
v -3.797142 0.408210 1.278955
v -4.057703 0.000790 0.530131
v -4.057703 0.351628 0.530131
v -4.186029 0.017921 -0.259058
v -4.186029 0.243621 -0.259058
v -4.187438 0.006096 -1.064960
v -4.187438 0.180455 -1.064960
v -4.036314 0.027571 -1.839951
v -4.036314 0.156641 -1.839951
v -3.753319 0.579748 2.858748
v -3.197387 0.581972 2.364973
v -1.221843 -0.027229 -4.206867
v -1.221843 -0.077250 -4.206867
v -0.530826 0.014632 -4.335670
v -0.530826 -0.010126 -4.335670
v -4.187438 0.006096 -1.064960
v -4.187438 0.180455 -1.064960
vn 0.7793 -0.0000 0.6266
vn 0.6399 -0.0000 0.7684
vn 0.4758 -0.0000 0.8795
vn 0.2940 -0.0000 0.9558
vn 0.1019 -0.0000 0.9948
vn -0.0930 -0.0000 0.9957
vn -0.2833 -0.0000 0.9590
vn -0.4625 -0.0000 0.8866
vn -0.3724 -0.0000 -0.9281
vn -0.6265 -0.0000 -0.7794
vn -0.8097 -0.0000 -0.5869
vn -0.6916 -0.0000 0.7223
vn 0.4625 -0.0000 -0.8866
vn 0.1950 -0.0000 -0.9808
vn -0.0522 -0.0000 -0.9986
vn -0.1832 -0.0000 -0.9831
vn -0.2853 -0.0000 -0.9584
vn -0.1019 -0.0000 -0.9948
vn 0.0930 -0.0000 -0.9957
vn 0.2833 -0.0000 -0.9590
vn 0.6242 -0.0000 -0.7812
vn 0.7628 -0.0000 -0.6466
vn 0.8733 -0.0000 -0.4872
vn 0.9512 -0.0000 -0.3086
vn 0.9931 -0.0000 -0.1172
vn 0.9968 -0.0000 0.0800
vn 0.9614 -0.0000 0.2750
vn 0.8880 -0.0000 0.4598
vn -0.8241 -0.0000 0.5665
vn -0.9136 -0.0000 0.4067
vn -0.9445 -0.0000 0.3286
vn -0.9870 -0.0000 0.1605
vn -1.0000 -0.0000 0.0017
vn -0.9815 -0.0000 -0.1914
vn -0.9437 -0.0000 -0.3309
vn -0.0617 0.9911 0.1182
vn 0.0126 -0.9991 -0.0402
vn 0.1261 -0.9913 0.0383
vn 0.0067 0.9999 0.0076
vn 0.0143 0.9999 0.0079
vn -0.0242 -0.9997 0.0016
vn 0.0147 -0.9943 0.1060
vn -0.0059 0.9997 0.0234
vn -0.0924 0.9897 0.1095
vn -0.8567 -0.0000 0.5158
vn -0.0018 -0.9995 -0.0319
vn 0.1346 -0.9869 0.0892
vn 0.0148 0.9998 0.0119
vn 0.0837 0.9964 -0.0105
vn 0.0160 0.9999 -0.0061
vn -0.0346 -0.9994 -0.0016
vn 0.0332 -0.9988 -0.0373
vn -0.0019 -0.9974 0.0722
vn -0.0040 0.9986 0.0533
vn -0.1031 0.9914 0.0808
vn -0.0191 -0.9969 -0.0758
vn 0.0565 -0.9889 0.1376
vn 0.0615 0.9971 0.0448
vn -0.0104 0.9937 0.1114
vn 0.0031 0.9999 0.0136
vn -0.6137 -0.0000 -0.7896
vn -0.0431 -0.9982 -0.0424
vn 0.1759 -0.9811 -0.0807
vn 0.0086 -0.9995 0.0298
vn -0.0533 0.9969 -0.0572
vn 0.0197 -0.9948 0.1001
vn -0.0314 0.9971 0.0698
vn -0.0345 0.9925 0.1169
vn 0.0079 1.0000 0.0017
vn 0.0025 1.0000 -0.0019
vn 0.0175 -0.9973 -0.0707
vn 0.1937 -0.9810 -0.0060
vn -0.0321 -0.9992 0.0239
vn -0.0065 -0.9995 0.0305
vn 0.0214 0.9997 -0.0112
vn 0.0382 -0.9972 0.0648
vn -0.0100 0.9995 0.0283
vt 1.000000 0.500000
vt 0.000000 0.500000
vt 1.000000 1.000000
vt 0.000000 1.000000
vt 0.968750 0.500000
vt 0.968750 1.000000
vt 0.937500 0.500000
vt 0.937500 1.000000
vt 0.906250 0.500000
vt 0.906250 1.000000
vt 0.875000 0.500000
vt 0.875000 1.000000
vt 0.843750 0.500000
vt 0.843750 1.000000
vt 0.812500 0.500000
vt 0.812500 1.000000
vt 0.781250 0.500000
vt 0.781250 1.000000
vt 0.750000 0.500000
vt 0.750000 1.000000
vt 0.937500 1.000000
vt 0.937500 0.500000
vt 0.968750 1.000000
vt 0.968750 0.500000
vt 1.000000 1.000000
vt 0.000000 1.000000
vt 1.000000 0.500000
vt 0.000000 0.500000
vt 0.343750 1.000000
vt 0.343750 0.500000
vt 0.375000 1.000000
vt 0.375000 0.500000
vt 0.750000 1.000000
vt 0.750000 0.500000
vt 0.781250 1.000000
vt 0.781250 0.500000
vt 0.812500 1.000000
vt 0.812500 0.500000
vt 0.843750 1.000000
vt 0.843750 0.500000
vt 0.875000 1.000000
vt 0.875000 0.500000
vt 0.906250 1.000000
vt 0.906250 0.500000
vt 0.375000 0.500000
vt 0.375000 1.000000
vt 0.343750 0.500000
vt 0.343750 1.000000
vt 0.312500 0.500000
vt 0.312500 1.000000
vt 0.281250 0.500000
vt 0.281250 1.000000
vt 0.250000 0.500000
vt 0.250000 1.000000
vt 0.218750 0.500000
vt 0.218750 1.000000
vt 0.187500 0.500000
vt 0.187500 1.000000
vt 0.156250 0.500000
vt 0.156250 1.000000
vt 0.125000 0.500000
vt 0.125000 1.000000
vt 0.093750 0.500000
vt 0.093750 1.000000
vt 0.062500 0.500000
vt 0.062500 1.000000
vt 0.031250 0.500000
vt 0.031250 1.000000
vt 0.312500 0.500000
vt 0.312500 1.000000
vt 0.281250 0.500000
vt 0.281250 1.000000
vt 0.250000 0.500000
vt 0.250000 1.000000
vt 0.218750 0.500000
vt 0.218750 1.000000
vt 0.187500 0.500000
vt 0.187500 1.000000
vt 0.156250 0.500000
vt 0.156250 1.000000
vt 0.125000 0.500000
vt 0.125000 1.000000
vt 0.093750 0.500000
vt 0.093750 1.000000
vt 0.062500 0.500000
vt 0.062500 1.000000
vt 0.031250 0.500000
vt 0.031250 1.000000
vt 0.218750 1.000000
vt 0.218750 1.000000
s 0
usemtl Material.006
f 1/1/1 3/5/1 4/6/1 2/3/1
f 3/5/2 5/7/2 6/8/2 4/6/2
f 5/7/3 7/9/3 8/10/3 6/8/3
f 7/9/4 9/11/4 10/12/4 8/10/4
f 9/11/5 11/13/5 12/14/5 10/12/5
f 11/13/6 13/15/6 14/16/6 12/14/6
f 13/15/7 15/17/7 16/18/7 14/16/7
f 15/17/8 17/19/8 18/20/8 16/18/8
f 20/22/9 19/21/9 39/43/9 40/44/9
f 22/24/10 21/23/10 19/21/10 20/22/10
f 24/27/11 23/25/11 21/23/11 22/24/11
f 69/73/12 70/74/12 86/90/12 71/75/12
f 67/71/8 68/72/8 70/74/8 69/73/8
f 26/30/6 25/29/6 66/70/6 65/69/6
f 28/32/5 27/31/5 25/29/5 26/30/5
f 32/36/13 31/35/13 29/33/13 30/34/13
f 34/38/14 33/37/14 31/35/14 32/36/14
f 36/40/15 35/39/15 33/37/15 34/38/15
f 38/42/16 37/41/16 35/39/16 36/40/16
f 40/44/17 39/43/17 37/41/17 38/42/17
f 41/45/18 43/47/18 44/48/18 42/46/18
f 43/47/19 45/49/19 46/50/19 44/48/19
f 45/49/20 47/51/20 48/52/20 46/50/20
f 47/51/13 49/53/13 50/54/13 48/52/13
f 49/53/21 51/55/21 85/89/21 50/54/21
f 51/55/22 53/57/22 54/58/22 52/56/22
f 53/57/23 55/59/23 56/60/23 54/58/23
f 55/59/24 57/61/24 58/62/24 56/60/24
f 57/61/25 59/63/25 60/64/25 58/62/25
f 59/63/26 61/65/26 62/66/26 60/64/26
f 65/69/7 66/70/7 68/72/7 67/71/7
f 61/65/27 63/67/27 64/68/27 62/66/27
f 63/67/28 1/2/28 2/4/28 64/68/28
f 71/75/29 72/76/29 74/78/29 73/77/29
f 73/77/30 74/78/30 76/80/30 75/79/30
f 75/79/31 76/80/31 78/82/31 77/81/31
f 77/81/32 78/82/32 80/84/32 79/83/32
f 79/83/33 80/84/33 82/86/33 81/85/33
f 81/85/34 82/86/34 84/88/34 83/87/34
f 83/87/35 84/88/35 23/26/35 24/28/35
f 49/53/36 47/51/36 67/71/36 69/73/36
f 12/14/37 14/16/37 33/37/37 35/39/37
f 48/52/38 50/54/38 70/74/38 68/72/38
f 5/7/39 3/5/39 22/24/39 20/22/39
f 59/63/40 57/61/40 77/81/40 79/83/40
f 4/6/41 6/8/41 19/21/41 21/23/41
f 58/62/42 60/64/42 80/84/42 78/82/42
f 15/17/43 13/15/43 34/38/43 32/36/43
f 51/55/44 49/53/44 69/73/44 71/75/44
f 41/45/45 42/46/45 27/31/45 28/32/45
f 14/16/46 16/18/46 31/35/46 33/37/46
f 50/54/47 85/89/47 86/90/47 70/74/47
f 7/9/48 5/7/48 20/22/48 40/44/48
f 43/47/49 41/45/49 28/32/49 26/30/49
f 61/65/50 59/63/50 79/83/50 81/85/50
f 6/8/51 8/10/51 39/43/51 19/21/51
f 42/46/52 44/48/52 25/29/52 27/31/52
f 60/64/53 62/66/53 82/86/53 80/84/53
f 17/19/54 15/17/54 32/36/54 30/34/54
f 53/57/55 51/55/55 71/75/55 73/77/55
f 16/18/56 18/20/56 29/33/56 31/35/56
f 52/56/57 54/58/57 74/78/57 72/76/57
f 9/11/58 7/9/58 40/44/58 38/42/58
f 45/49/59 43/47/59 26/30/59 65/69/59
f 63/67/60 61/65/60 81/85/60 83/87/60
f 18/20/61 17/19/61 30/34/61 29/33/61
f 8/10/62 10/12/62 37/41/62 39/43/62
f 44/48/63 46/50/63 66/70/63 25/29/63
f 62/66/64 64/68/64 84/88/64 82/86/64
f 55/59/65 53/57/65 73/77/65 75/79/65
f 54/58/66 56/60/66 76/80/66 74/78/66
f 11/13/67 9/11/67 38/42/67 36/40/67
f 47/51/68 45/49/68 65/69/68 67/71/68
f 3/5/69 1/1/69 24/27/69 22/24/69
f 1/2/70 63/67/70 83/87/70 24/28/70
f 10/12/71 12/14/71 35/39/71 37/41/71
f 46/50/72 48/52/72 68/72/72 66/70/72
f 2/3/73 4/6/73 21/23/73 23/25/73
f 64/68/74 2/4/74 23/26/74 84/88/74
f 57/61/75 55/59/75 75/79/75 77/81/75
f 56/60/76 58/62/76 78/82/76 76/80/76
f 13/15/77 11/13/77 36/40/77 34/38/77
l 87 88
l 89 90
l 92 91
