# Blender 3.5.1
# www.blender.org
mtllib DTRamp.mtl
o Ramp
v 31.734789 0.026031 3.259715
v 31.734789 0.117875 3.259715
v 31.150328 0.026031 3.992111
v 31.150328 0.092680 3.992111
v 30.431644 0.026031 4.595091
v 30.431644 0.075211 4.595091
v 29.606365 0.026031 5.045481
v 29.606365 0.053556 5.045481
v 28.706200 0.026031 5.325974
v 28.706200 0.064068 5.325974
v 27.765741 0.026031 5.425790
v 27.765741 0.066870 5.425790
v 26.821133 0.026031 5.341094
v 26.821133 0.064441 5.341094
v 25.908672 0.026031 5.075139
v 25.908672 0.052093 5.075139
v 25.063431 0.026031 4.638148
v 25.063431 0.025358 4.638148
v 29.997944 0.065239 3.743253
v 29.997944 0.016416 3.743253
v 30.596294 0.081388 3.258622
v 30.596294 0.017057 3.258622
v 31.041227 0.121682 2.640002
v 31.041227 0.022871 2.640002
v 27.944218 1.142576 -3.224022
v 27.944218 0.128916 -3.224022
v 27.176544 1.134482 -3.142543
v 27.176544 -0.016472 -3.142544
v 25.914717 -0.031633 3.971487
v 25.914717 -0.032878 3.971487
v 26.604671 0.031756 4.328192
v 26.604671 0.003576 4.328192
v 27.190256 0.034366 4.442360
v 27.190256 0.003821 4.442360
v 27.801481 0.014632 4.408185
v 27.801481 -0.010126 4.408185
v 28.492022 -0.027229 4.276850
v 28.492022 -0.077250 4.276850
v 29.234524 0.033027 4.052878
v 29.234524 0.001772 4.052878
v 26.609259 0.026031 -4.077062
v 26.609259 1.154868 -4.077062
v 27.549717 0.026031 -4.176877
v 27.549717 1.083373 -4.176877
v 28.494326 0.026031 -4.092181
v 28.494326 0.972168 -4.092181
v 29.406784 0.026031 -3.826226
v 29.406784 0.818319 -3.826226
v 30.252029 0.026031 -3.389235
v 30.252029 0.705839 -3.389235
v 30.997574 0.026031 -2.797999
v 30.997574 0.579107 -2.797999
v 31.614773 0.026031 -2.075242
v 31.614773 0.482921 -2.075242
v 32.079903 0.026031 -1.248735
v 32.079903 0.372383 -1.248735
v 32.375092 0.026031 -0.350243
v 32.375092 0.300719 -0.350243
v 32.488995 0.026031 0.585706
v 32.488995 0.221183 0.585706
v 32.417236 0.026031 1.523144
v 32.417236 0.158059 1.523144
v 32.162575 0.026031 2.426046
v 32.162575 0.135413 2.426046
v 28.715282 0.128916 -3.154886
v 28.715282 0.959454 -3.154886
v 29.460102 0.128916 -2.937793
v 29.460102 0.789461 -2.937793
v 30.150055 0.128916 -2.581087
v 30.150055 0.676113 -2.581087
v 30.443457 0.128916 -2.302189
v 30.443457 0.581972 -2.302189
v 30.775135 0.128916 -1.823474
v 30.775135 0.456568 -1.823474
v 31.047190 0.007446 -1.218378
v 31.047190 0.408210 -1.218378
v 31.310495 0.000790 -0.470514
v 31.310495 0.351628 -0.470514
v 31.441713 0.017921 0.318199
v 31.441713 0.243621 0.318199
v 31.446077 0.006096 1.124091
v 31.446077 0.180455 1.124091
v 31.297796 0.027571 1.899631
v 31.297796 0.156641 1.899631
v 30.997574 0.579748 -2.797999
v 30.443457 0.581972 -2.302189
v 28.492022 -0.027229 4.276850
v 28.492022 -0.077250 4.276850
v 27.801481 0.014632 4.408185
v 27.801481 -0.010126 4.408185
v 31.446077 0.006096 1.124091
v 31.446077 0.180455 1.124091
vn -0.6139 0.6838 -0.3944
vn -0.5239 0.6824 -0.5097
vn -0.5066 -0.6882 -0.5195
vn -0.5981 -0.6868 -0.4130
vn -0.4151 0.6805 -0.6039
vn -0.3938 -0.6915 -0.6056
vn -0.3045 0.6708 -0.6762
vn -0.2639 -0.6935 -0.6704
vn -0.1534 0.6648 -0.7311
vn -0.1423 -0.7060 -0.6937
vn 0.0077 0.6688 -0.7434
vn -0.0165 -0.7049 -0.7091
vn 0.1383 0.6768 -0.7231
vn 0.1339 -0.6992 -0.7023
vn 0.2679 0.6718 -0.6906
vn 0.2848 -0.7043 -0.6503
vn 0.8174 0.5614 -0.1291
vn 0.8351 -0.5500 -0.0027
vn 0.3357 0.7450 0.5764
vn 0.3604 -0.7380 0.5705
vn 0.2552 -0.7093 0.6571
vn 0.2105 0.7221 0.6590
vn 0.4863 0.7420 0.4615
vn 0.5127 -0.7303 0.4514
vn 0.5936 0.7424 0.3105
vn 0.6086 -0.7405 0.2851
vn 0.4218 0.6868 -0.5920
vn 0.2791 -0.7457 -0.6050
vn 0.4226 -0.6768 -0.6028
vn 0.5534 0.6792 -0.4822
vn 0.2743 0.6809 -0.6790
vn 0.1434 -0.7258 -0.6728
vn -0.0271 0.6835 -0.7295
vn -0.1044 -0.7698 -0.6296
vn -0.0186 -0.7388 -0.6737
vn 0.1373 0.6853 -0.7152
vn 0.3222 0.6425 -0.6953
vn 0.3442 -0.6141 -0.7102
vn -0.2241 0.7481 0.6246
vn -0.2046 -0.7324 0.6494
vn 0.0797 -0.5639 0.8220
vn 0.0768 0.6306 0.7723
vn -0.0403 0.7434 0.6677
vn -0.0506 -0.7262 0.6856
vn 0.1047 0.7311 0.6742
vn 0.0696 -0.7050 0.7058
vn 0.1529 0.7602 0.6314
vn 0.1743 -0.6819 0.7103
vn 0.7317 0.5700 0.3736
vn -0.0282 0.6960 0.7175
vn -0.0481 -0.6694 0.7413
vn 0.7334 -0.5723 0.3668
vn -0.1298 0.7243 0.6771
vn -0.2435 -0.6513 0.7187
vn -0.2567 0.7278 0.6359
vn -0.3722 -0.6537 0.6589
vn -0.3716 0.7313 0.5719
vn -0.4730 -0.6734 0.5682
vn -0.4711 0.7313 0.4933
vn -0.5615 -0.6228 0.5447
vn -0.5638 0.7041 0.4317
vn -0.6283 -0.6960 0.3475
vn -0.5783 -0.7341 0.3558
vn -0.6601 0.6833 0.3120
vn -0.6907 -0.6798 0.2465
vn -0.7163 0.6800 0.1567
vn -0.7240 -0.6825 0.0997
vn -0.7327 0.6803 0.0164
vn -0.7321 -0.6801 -0.0389
vn -0.7195 0.6822 -0.1301
vn -0.7204 -0.6754 -0.1576
vn -0.6781 0.6839 -0.2692
vn -0.6750 -0.6806 -0.2848
vn 0.4633 -0.7594 -0.4568
vn 0.5724 -0.6975 -0.4312
vn 0.6502 0.6760 -0.3468
vn 0.6256 -0.7111 -0.3210
vn 0.6457 0.7310 -0.2206
vn 0.6379 -0.7339 -0.2332
vn 0.6541 0.7372 -0.1692
vn 0.6860 -0.7160 -0.1293
vn 0.6841 0.7268 -0.0611
vn 0.6874 -0.7259 0.0213
vn 0.6720 0.7380 0.0609
vn 0.6670 -0.7287 0.1556
vn 0.6699 0.7217 0.1741
vt 1.000000 0.500000
vt 0.000000 0.500000
vt 1.000000 1.000000
vt 0.000000 1.000000
vt 0.968750 0.500000
vt 0.968750 1.000000
vt 0.937500 0.500000
vt 0.937500 1.000000
vt 0.906250 0.500000
vt 0.906250 1.000000
vt 0.875000 0.500000
vt 0.875000 1.000000
vt 0.843750 0.500000
vt 0.843750 1.000000
vt 0.812500 0.500000
vt 0.812500 1.000000
vt 0.781250 0.500000
vt 0.781250 1.000000
vt 0.750000 0.500000
vt 0.750000 1.000000
vt 0.937500 1.000000
vt 0.937500 0.500000
vt 0.968750 1.000000
vt 0.968750 0.500000
vt 1.000000 1.000000
vt 0.000000 1.000000
vt 1.000000 0.500000
vt 0.000000 0.500000
vt 0.343750 1.000000
vt 0.343750 0.500000
vt 0.375000 1.000000
vt 0.375000 0.500000
vt 0.750000 1.000000
vt 0.750000 0.500000
vt 0.781250 1.000000
vt 0.781250 0.500000
vt 0.812500 1.000000
vt 0.812500 0.500000
vt 0.843750 1.000000
vt 0.843750 0.500000
vt 0.875000 1.000000
vt 0.875000 0.500000
vt 0.906250 1.000000
vt 0.906250 0.500000
vt 0.375000 0.500000
vt 0.375000 1.000000
vt 0.343750 0.500000
vt 0.343750 1.000000
vt 0.312500 0.500000
vt 0.312500 1.000000
vt 0.281250 0.500000
vt 0.281250 1.000000
vt 0.250000 0.500000
vt 0.250000 1.000000
vt 0.218750 0.500000
vt 0.218750 1.000000
vt 0.187500 0.500000
vt 0.187500 1.000000
vt 0.156250 0.500000
vt 0.156250 1.000000
vt 0.125000 0.500000
vt 0.125000 1.000000
vt 0.093750 0.500000
vt 0.093750 1.000000
vt 0.062500 0.500000
vt 0.062500 1.000000
vt 0.031250 0.500000
vt 0.031250 1.000000
vt 0.312500 0.500000
vt 0.312500 1.000000
vt 0.281250 0.500000
vt 0.281250 1.000000
vt 0.250000 0.500000
vt 0.250000 1.000000
vt 0.218750 0.500000
vt 0.218750 1.000000
vt 0.187500 0.500000
vt 0.187500 1.000000
vt 0.156250 0.500000
vt 0.156250 1.000000
vt 0.125000 0.500000
vt 0.125000 1.000000
vt 0.093750 0.500000
vt 0.093750 1.000000
vt 0.062500 0.500000
vt 0.062500 1.000000
vt 0.031250 0.500000
vt 0.031250 1.000000
vt 0.218750 1.000000
vt 0.218750 1.000000
s 1
usemtl Material.014
f 1/1/1 3/5/2 4/6/3 2/3/4
f 3/5/2 5/7/5 6/8/6 4/6/3
f 5/7/5 7/9/7 8/10/8 6/8/6
f 7/9/7 9/11/9 10/12/10 8/10/8
f 9/11/9 11/13/11 12/14/12 10/12/10
f 11/13/11 13/15/13 14/16/14 12/14/12
f 13/15/13 15/17/15 16/18/16 14/16/14
f 15/17/15 17/19/17 18/20/18 16/18/16
f 20/22/19 19/21/20 39/43/21 40/44/22
f 22/24/23 21/23/24 19/21/20 20/22/19
f 24/27/25 23/25/26 21/23/24 22/24/23
f 69/73/27 70/74/28 86/90/29 71/75/30
f 67/71/31 68/72/32 70/74/28 69/73/27
f 26/30/33 25/29/34 66/70/35 65/69/36
f 28/32/37 27/31/38 25/29/34 26/30/33
f 32/36/39 31/35/40 29/33/41 30/34/42
f 34/38/43 33/37/44 31/35/40 32/36/39
f 36/40/45 35/39/46 33/37/44 34/38/43
f 38/42/47 37/41/48 35/39/46 36/40/45
f 40/44/22 39/43/21 37/41/48 38/42/47
f 41/45/49 43/47/50 44/48/51 42/46/52
f 43/47/50 45/49/53 46/50/54 44/48/51
f 45/49/53 47/51/55 48/52/56 46/50/54
f 47/51/55 49/53/57 50/54/58 48/52/56
f 49/53/57 51/55/59 85/89/60 50/54/58
f 51/55/59 53/57/61 54/58/62 52/56/63
f 53/57/61 55/59/64 56/60/65 54/58/62
f 55/59/64 57/61/66 58/62/67 56/60/65
f 57/61/66 59/63/68 60/64/69 58/62/67
f 59/63/68 61/65/70 62/66/71 60/64/69
f 65/69/36 66/70/35 68/72/32 67/71/31
f 61/65/70 63/67/72 64/68/73 62/66/71
f 63/67/72 1/2/1 2/4/4 64/68/73
f 71/75/30 72/76/74 74/78/75 73/77/76
f 73/77/76 74/78/75 76/80/77 75/79/78
f 75/79/78 76/80/77 78/82/79 77/81/80
f 77/81/80 78/82/79 80/84/81 79/83/82
f 79/83/82 80/84/81 82/86/83 81/85/84
f 81/85/84 82/86/83 84/88/85 83/87/86
f 83/87/86 84/88/85 23/26/26 24/28/25
f 49/53/57 47/51/55 67/71/31 69/73/27
f 12/14/12 14/16/14 33/37/44 35/39/46
f 48/52/56 50/54/58 70/74/28 68/72/32
f 5/7/5 3/5/2 22/24/23 20/22/19
f 59/63/68 57/61/66 77/81/80 79/83/82
f 4/6/3 6/8/6 19/21/20 21/23/24
f 58/62/67 60/64/69 80/84/81 78/82/79
f 15/17/15 13/15/13 34/38/43 32/36/39
f 51/55/59 49/53/57 69/73/27 71/75/30
f 41/45/49 42/46/52 27/31/38 28/32/37
f 14/16/14 16/18/16 31/35/40 33/37/44
f 50/54/58 85/89/60 86/90/29 70/74/28
f 7/9/7 5/7/5 20/22/19 40/44/22
f 43/47/50 41/45/49 28/32/37 26/30/33
f 61/65/70 59/63/68 79/83/82 81/85/84
f 6/8/6 8/10/8 39/43/21 19/21/20
f 42/46/52 44/48/51 25/29/34 27/31/38
f 60/64/69 62/66/71 82/86/83 80/84/81
f 17/19/17 15/17/15 32/36/39 30/34/42
f 53/57/61 51/55/59 71/75/30 73/77/76
f 16/18/16 18/20/18 29/33/41 31/35/40
f 52/56/63 54/58/62 74/78/75 72/76/74
f 9/11/9 7/9/7 40/44/22 38/42/47
f 45/49/53 43/47/50 26/30/33 65/69/36
f 63/67/72 61/65/70 81/85/84 83/87/86
f 18/20/18 17/19/17 30/34/42 29/33/41
f 8/10/8 10/12/10 37/41/48 39/43/21
f 44/48/51 46/50/54 66/70/35 25/29/34
f 62/66/71 64/68/73 84/88/85 82/86/83
f 55/59/64 53/57/61 73/77/76 75/79/78
f 54/58/62 56/60/65 76/80/77 74/78/75
f 11/13/11 9/11/9 38/42/47 36/40/45
f 47/51/55 45/49/53 65/69/36 67/71/31
f 3/5/2 1/1/1 24/27/25 22/24/23
f 1/2/1 63/67/72 83/87/86 24/28/25
f 10/12/10 12/14/12 35/39/46 37/41/48
f 46/50/54 48/52/56 68/72/32 66/70/35
f 2/3/4 4/6/3 21/23/24 23/25/26
f 64/68/73 2/4/4 23/26/26 84/88/85
f 57/61/66 55/59/64 75/79/78 77/81/80
f 56/60/65 58/62/67 78/82/79 76/80/77
f 13/15/13 11/13/11 36/40/45 34/38/43
l 87 88
l 89 90
l 92 91
