# Blender 3.5.1
# www.blender.org
mtllib iron_fence.mtl
o fence_besi
v 53.297318 -0.119250 14.531294
v 53.297318 0.272474 14.531296
v 53.688202 -0.119251 14.835903
v 53.688202 0.272473 14.835903
v 51.736164 -0.119250 15.648626
v 51.736164 0.272474 15.648626
v 51.900673 -0.119250 16.116081
v 51.900673 0.272474 16.116081
v 51.736164 -0.119250 15.648626
v 51.736164 0.272474 15.648626
v 51.900673 -0.119250 16.116081
v 51.900673 0.272474 16.116081
v 49.811829 -0.119250 15.772211
v 49.811829 0.272474 15.772211
v 49.717278 -0.119251 16.258663
v 49.717278 0.272473 16.258663
v 49.811829 -0.119250 15.772211
v 49.811829 0.272474 15.772211
v 49.717278 -0.119251 16.258663
v 49.717278 0.272473 16.258663
v 48.004570 -0.119250 15.023754
v 48.004570 0.272474 15.023754
v 47.738983 -0.119251 15.442133
v 47.738983 0.272474 15.442133
v 48.004570 -0.119250 15.023754
v 48.004570 0.272474 15.023754
v 47.738983 -0.119251 15.442133
v 47.738983 0.272474 15.442133
v 46.518574 -0.119250 13.734293
v 46.518574 0.272474 13.734293
v 46.143303 -0.119251 14.057941
v 46.143303 0.272473 14.057941
v 46.518574 -0.119250 13.734293
v 46.518574 0.272474 13.734293
v 46.143303 -0.119251 14.057941
v 46.143303 0.272473 14.057941
v 45.481171 -0.119250 12.066837
v 45.481171 0.272474 12.066837
v 45.023426 -0.119251 12.256701
v 45.023426 0.272473 12.256701
v 45.481171 -0.119250 12.066837
v 45.481171 0.272474 12.066837
v 45.023426 -0.119251 12.256701
v 45.023426 0.272473 12.256701
v 45.027306 -0.119250 10.156252
v 45.027306 0.272474 10.156252
v 44.533012 -0.119251 10.191624
v 44.533012 0.272473 10.191624
v 45.027306 -0.119250 10.156252
v 45.027306 0.272474 10.156252
v 44.533012 -0.119251 10.191624
v 44.533012 0.272473 10.191624
v 45.251263 -0.119250 8.217108
v 45.251263 0.272474 8.217108
v 44.781185 -0.119251 8.060252
v 44.781185 0.272473 8.060252
v 45.251263 -0.119250 8.217108
v 45.251263 0.272474 8.217108
v 44.781185 -0.119251 8.060252
v 44.781185 0.272473 8.060252
v 46.316025 -0.119250 6.617871
v 46.316025 0.272474 6.617871
v 46.001186 -0.119251 6.235181
v 46.001186 0.272474 6.235182
v 46.316025 -0.119250 6.617871
v 46.316025 0.272474 6.617871
v 46.001186 -0.119251 6.235181
v 46.001186 0.272474 6.235182
v 48.083969 -0.119250 5.883596
v 48.083969 0.272474 5.883596
v 48.045464 -0.119251 5.389538
v 48.045464 0.272473 5.389538
v 48.083969 -0.119250 5.883596
v 48.083969 0.272474 5.883596
v 48.045464 -0.119251 5.389538
v 48.045464 0.272473 5.389538
v 49.975540 -0.119250 6.279356
v 49.975540 0.272474 6.279356
v 50.183727 -0.119251 5.829651
v 50.183727 0.272473 5.829651
v 49.975540 -0.119250 6.279356
v 49.975540 0.272474 6.279356
v 50.183727 -0.119251 5.829651
v 50.183727 0.272473 5.829651
v 51.589699 -0.119250 7.395780
v 51.589699 0.272474 7.395780
v 51.927299 -0.119251 7.033014
v 51.927299 0.272473 7.033014
v 51.589699 -0.119250 7.395780
v 51.589699 0.272474 7.395780
v 51.927299 -0.119251 7.033014
v 51.927299 0.272473 7.033014
v 52.855942 -0.119250 8.908038
v 52.855942 0.272474 8.908039
v 53.271828 -0.119251 8.638563
v 53.271828 0.272473 8.638563
v 52.855942 -0.119250 8.908038
v 52.855942 0.272474 8.908039
v 53.271828 -0.119251 8.638563
v 53.271828 0.272473 8.638563
v 53.709129 -0.119250 10.683702
v 53.709129 0.272474 10.683702
v 54.181007 -0.119250 10.532356
v 54.181007 0.272473 10.532356
v 53.709129 -0.119250 10.683702
v 53.709129 0.272474 10.683702
v 54.181007 -0.119250 10.532356
v 54.181007 0.272473 10.532356
v 53.991852 -0.119250 12.619068
v 53.991852 0.272474 12.619068
v 54.486557 -0.119250 12.648142
v 54.486557 0.272473 12.648142
v 53.991852 -0.119250 12.619068
v 53.991852 0.272474 12.619068
v 54.486557 -0.119250 12.648142
v 54.486557 0.272473 12.648142
v 53.369591 -0.119250 14.436371
v 53.369591 0.272474 14.436373
v 53.771675 -0.119251 14.726036
v 53.771675 0.272473 14.726036
v 53.369591 -0.119250 14.436371
v 53.369591 0.272474 14.436373
v 53.771675 -0.119251 14.726036
v 53.771675 0.272473 14.726036
v 51.847267 -0.119250 15.604584
v 51.847267 0.272474 15.604584
v 52.028202 -0.119251 16.065929
v 52.028202 0.272473 16.065929
vn 0.6147 -0.0000 -0.7888
vn 0.5823 -0.0000 0.8130
vn -0.9433 -0.0000 0.3320
vn -0.5820 -0.0000 -0.8132
vn -0.0000 -1.0000 -0.0000
vn -0.0000 1.0000 -0.0000
vn 0.9433 -0.0000 -0.3320
vn 0.0652 -0.0000 0.9979
vn -0.9816 -0.0000 -0.1908
vn -0.0641 -0.0000 -0.9979
vn 0.9816 -0.0000 0.1908
vn -0.3815 -0.0000 0.9244
vn -0.8443 -0.0000 -0.5359
vn 0.3826 -0.0000 -0.9239
vn 0.8443 -0.0000 0.5359
vn -0.6553 -0.0000 0.7554
vn -0.6531 -0.0000 -0.7573
vn 0.6554 -0.0000 -0.7553
vn 0.6531 -0.0000 0.7573
vn -0.8492 -0.0000 0.5280
vn -0.3831 -0.0000 -0.9237
vn 0.8491 -0.0000 -0.5283
vn 0.3831 -0.0000 0.9237
vn -0.9729 -0.0000 0.2311
vn -0.0714 -0.0000 -0.9974
vn 0.9729 -0.0000 -0.2311
vn 0.0714 -0.0000 0.9974
vn -0.9933 -0.0000 -0.1157
vn 0.3165 -0.0000 -0.9486
vn 0.9934 -0.0000 0.1147
vn -0.3165 -0.0000 0.9486
vn -0.8314 -0.0000 -0.5557
vn 0.7722 -0.0000 -0.6353
vn 0.8324 -0.0000 0.5542
vn -0.7722 -0.0000 0.6353
vn -0.3822 -0.0000 -0.9241
vn 0.9970 -0.0000 -0.0777
vn 0.3836 -0.0000 0.9235
vn -0.9970 -0.0000 0.0777
vn 0.2016 -0.0000 -0.9795
vn 0.9075 -0.0000 0.4201
vn -0.2048 -0.0000 0.9788
vn -0.9075 -0.0000 -0.4201
vn 0.5680 -0.0000 -0.8230
vn 0.7320 -0.0000 0.6813
vn -0.5688 -0.0000 0.8224
vn -0.7320 -0.0000 -0.6813
vn 0.7667 -0.0000 -0.6420
vn 0.5438 -0.0000 0.8392
vn -0.7667 -0.0000 0.6420
vn -0.5438 -0.0000 -0.8392
vn 0.9015 -0.0000 -0.4328
vn 0.3054 -0.0000 0.9522
vn -0.9014 -0.0000 0.4331
vn -0.3054 -0.0000 -0.9522
vn 0.9897 -0.0000 -0.1429
vn -0.0587 -0.0000 0.9983
vn -0.9895 -0.0000 0.1445
vn 0.0587 -0.0000 -0.9983
vn 0.9456 -0.0000 0.3253
vn -0.5845 -0.0000 0.8114
vn -0.9461 -0.0000 -0.3239
vn 0.5845 -0.0000 -0.8114
vn 0.6094 -0.0000 0.7929
vn -0.9310 -0.0000 0.3651
vn -0.6088 -0.0000 -0.7933
vt 0.375000 0.000000
vt 0.375000 1.000000
vt 0.125000 0.750000
vt 0.625000 0.000000
vt 0.625000 1.000000
vt 0.875000 0.750000
vt 0.375000 0.250000
vt 0.125000 0.500000
vt 0.625000 0.250000
vt 0.875000 0.500000
vt 0.375000 0.750000
vt 0.625000 0.750000
vt 0.375000 0.500000
vt 0.625000 0.500000
vt 0.375000 0.000000
vt 0.375000 1.000000
vt 0.125000 0.750000
vt 0.625000 0.000000
vt 0.625000 1.000000
vt 0.875000 0.750000
vt 0.375000 0.250000
vt 0.125000 0.500000
vt 0.625000 0.250000
vt 0.875000 0.500000
vt 0.375000 0.750000
vt 0.625000 0.750000
vt 0.375000 0.500000
vt 0.625000 0.500000
vt 0.375000 0.000000
vt 0.375000 1.000000
vt 0.125000 0.750000
vt 0.625000 0.000000
vt 0.625000 1.000000
vt 0.875000 0.750000
vt 0.375000 0.250000
vt 0.125000 0.500000
vt 0.625000 0.250000
vt 0.875000 0.500000
vt 0.375000 0.750000
vt 0.625000 0.750000
vt 0.375000 0.500000
vt 0.625000 0.500000
vt 0.375000 0.000000
vt 0.375000 1.000000
vt 0.125000 0.750000
vt 0.625000 0.000000
vt 0.625000 1.000000
vt 0.875000 0.750000
vt 0.375000 0.250000
vt 0.125000 0.500000
vt 0.625000 0.250000
vt 0.875000 0.500000
vt 0.375000 0.750000
vt 0.625000 0.750000
vt 0.375000 0.500000
vt 0.625000 0.500000
vt 0.375000 0.000000
vt 0.375000 1.000000
vt 0.125000 0.750000
vt 0.625000 0.000000
vt 0.625000 1.000000
vt 0.875000 0.750000
vt 0.375000 0.250000
vt 0.125000 0.500000
vt 0.625000 0.250000
vt 0.875000 0.500000
vt 0.375000 0.750000
vt 0.625000 0.750000
vt 0.375000 0.500000
vt 0.625000 0.500000
vt 0.375000 0.000000
vt 0.375000 1.000000
vt 0.125000 0.750000
vt 0.625000 0.000000
vt 0.625000 1.000000
vt 0.875000 0.750000
vt 0.375000 0.250000
vt 0.125000 0.500000
vt 0.625000 0.250000
vt 0.875000 0.500000
vt 0.375000 0.750000
vt 0.625000 0.750000
vt 0.375000 0.500000
vt 0.625000 0.500000
vt 0.375000 0.000000
vt 0.375000 1.000000
vt 0.125000 0.750000
vt 0.625000 0.000000
vt 0.625000 1.000000
vt 0.875000 0.750000
vt 0.375000 0.250000
vt 0.125000 0.500000
vt 0.625000 0.250000
vt 0.875000 0.500000
vt 0.375000 0.750000
vt 0.625000 0.750000
vt 0.375000 0.500000
vt 0.625000 0.500000
vt 0.375000 0.000000
vt 0.375000 1.000000
vt 0.125000 0.750000
vt 0.625000 0.000000
vt 0.625000 1.000000
vt 0.875000 0.750000
vt 0.375000 0.250000
vt 0.125000 0.500000
vt 0.625000 0.250000
vt 0.875000 0.500000
vt 0.375000 0.750000
vt 0.625000 0.750000
vt 0.375000 0.500000
vt 0.625000 0.500000
vt 0.375000 0.000000
vt 0.375000 1.000000
vt 0.125000 0.750000
vt 0.625000 0.000000
vt 0.625000 1.000000
vt 0.875000 0.750000
vt 0.375000 0.250000
vt 0.125000 0.500000
vt 0.625000 0.250000
vt 0.875000 0.500000
vt 0.375000 0.750000
vt 0.625000 0.750000
vt 0.375000 0.500000
vt 0.625000 0.500000
vt 0.375000 0.000000
vt 0.375000 1.000000
vt 0.125000 0.750000
vt 0.625000 0.000000
vt 0.625000 1.000000
vt 0.875000 0.750000
vt 0.375000 0.250000
vt 0.125000 0.500000
vt 0.625000 0.250000
vt 0.875000 0.500000
vt 0.375000 0.750000
vt 0.625000 0.750000
vt 0.375000 0.500000
vt 0.625000 0.500000
vt 0.375000 0.000000
vt 0.375000 1.000000
vt 0.125000 0.750000
vt 0.625000 0.000000
vt 0.625000 1.000000
vt 0.875000 0.750000
vt 0.375000 0.250000
vt 0.125000 0.500000
vt 0.625000 0.250000
vt 0.875000 0.500000
vt 0.375000 0.750000
vt 0.625000 0.750000
vt 0.375000 0.500000
vt 0.625000 0.500000
vt 0.375000 0.000000
vt 0.375000 1.000000
vt 0.125000 0.750000
vt 0.625000 0.000000
vt 0.625000 1.000000
vt 0.875000 0.750000
vt 0.375000 0.250000
vt 0.125000 0.500000
vt 0.625000 0.250000
vt 0.875000 0.500000
vt 0.375000 0.750000
vt 0.625000 0.750000
vt 0.375000 0.500000
vt 0.625000 0.500000
vt 0.375000 0.000000
vt 0.375000 1.000000
vt 0.125000 0.750000
vt 0.625000 0.000000
vt 0.625000 1.000000
vt 0.875000 0.750000
vt 0.375000 0.250000
vt 0.125000 0.500000
vt 0.625000 0.250000
vt 0.875000 0.500000
vt 0.375000 0.750000
vt 0.625000 0.750000
vt 0.375000 0.500000
vt 0.625000 0.500000
vt 0.375000 0.000000
vt 0.375000 1.000000
vt 0.125000 0.750000
vt 0.625000 0.000000
vt 0.625000 1.000000
vt 0.875000 0.750000
vt 0.375000 0.250000
vt 0.125000 0.500000
vt 0.625000 0.250000
vt 0.875000 0.500000
vt 0.375000 0.750000
vt 0.625000 0.750000
vt 0.375000 0.500000
vt 0.625000 0.500000
vt 0.375000 0.000000
vt 0.375000 1.000000
vt 0.125000 0.750000
vt 0.625000 0.000000
vt 0.625000 1.000000
vt 0.875000 0.750000
vt 0.375000 0.250000
vt 0.125000 0.500000
vt 0.625000 0.250000
vt 0.875000 0.500000
vt 0.375000 0.750000
vt 0.625000 0.750000
vt 0.375000 0.500000
vt 0.625000 0.500000
vt 0.375000 0.000000
vt 0.375000 1.000000
vt 0.125000 0.750000
vt 0.625000 0.000000
vt 0.625000 1.000000
vt 0.875000 0.750000
vt 0.375000 0.250000
vt 0.125000 0.500000
vt 0.625000 0.250000
vt 0.875000 0.500000
vt 0.375000 0.750000
vt 0.625000 0.750000
vt 0.375000 0.500000
vt 0.625000 0.500000
s 0
f 1/1/1 2/4/1 4/9/1 3/7/1
f 3/7/2 4/9/2 8/14/2 7/13/2
f 7/13/3 8/14/3 6/12/3 5/11/3
f 5/11/4 6/12/4 2/5/4 1/2/4
f 3/8/5 7/13/5 5/11/5 1/3/5
f 8/14/6 4/10/6 2/6/6 6/12/6
f 9/15/7 10/18/7 12/23/7 11/21/7
f 11/21/8 12/23/8 16/28/8 15/27/8
f 15/27/9 16/28/9 14/26/9 13/25/9
f 13/25/10 14/26/10 10/19/10 9/16/10
f 11/22/5 15/27/5 13/25/5 9/17/5
f 16/28/6 12/24/6 10/20/6 14/26/6
f 17/29/11 18/32/11 20/37/11 19/35/11
f 19/35/12 20/37/12 24/42/12 23/41/12
f 23/41/13 24/42/13 22/40/13 21/39/13
f 21/39/14 22/40/14 18/33/14 17/30/14
f 19/36/5 23/41/5 21/39/5 17/31/5
f 24/42/6 20/38/6 18/34/6 22/40/6
f 25/43/15 26/46/15 28/51/15 27/49/15
f 27/49/16 28/51/16 32/56/16 31/55/16
f 31/55/17 32/56/17 30/54/17 29/53/17
f 29/53/18 30/54/18 26/47/18 25/44/18
f 27/50/5 31/55/5 29/53/5 25/45/5
f 32/56/6 28/52/6 26/48/6 30/54/6
f 33/57/19 34/60/19 36/65/19 35/63/19
f 35/63/20 36/65/20 40/70/20 39/69/20
f 39/69/21 40/70/21 38/68/21 37/67/21
f 37/67/22 38/68/22 34/61/22 33/58/22
f 35/64/5 39/69/5 37/67/5 33/59/5
f 40/70/6 36/66/6 34/62/6 38/68/6
f 41/71/23 42/74/23 44/79/23 43/77/23
f 43/77/24 44/79/24 48/84/24 47/83/24
f 47/83/25 48/84/25 46/82/25 45/81/25
f 45/81/26 46/82/26 42/75/26 41/72/26
f 43/78/5 47/83/5 45/81/5 41/73/5
f 48/84/6 44/80/6 42/76/6 46/82/6
f 49/85/27 50/88/27 52/93/27 51/91/27
f 51/91/28 52/93/28 56/98/28 55/97/28
f 55/97/29 56/98/29 54/96/29 53/95/29
f 53/95/30 54/96/30 50/89/30 49/86/30
f 51/92/5 55/97/5 53/95/5 49/87/5
f 56/98/6 52/94/6 50/90/6 54/96/6
f 57/99/31 58/102/31 60/107/31 59/105/31
f 59/105/32 60/107/32 64/112/32 63/111/32
f 63/111/33 64/112/33 62/110/33 61/109/33
f 61/109/34 62/110/34 58/103/34 57/100/34
f 59/106/5 63/111/5 61/109/5 57/101/5
f 64/112/6 60/108/6 58/104/6 62/110/6
f 65/113/35 66/116/35 68/121/35 67/119/35
f 67/119/36 68/121/36 72/126/36 71/125/36
f 71/125/37 72/126/37 70/124/37 69/123/37
f 69/123/38 70/124/38 66/117/38 65/114/38
f 67/120/5 71/125/5 69/123/5 65/115/5
f 72/126/6 68/122/6 66/118/6 70/124/6
f 73/127/39 74/130/39 76/135/39 75/133/39
f 75/133/40 76/135/40 80/140/40 79/139/40
f 79/139/41 80/140/41 78/138/41 77/137/41
f 77/137/42 78/138/42 74/131/42 73/128/42
f 75/134/5 79/139/5 77/137/5 73/129/5
f 80/140/6 76/136/6 74/132/6 78/138/6
f 81/141/43 82/144/43 84/149/43 83/147/43
f 83/147/44 84/149/44 88/154/44 87/153/44
f 87/153/45 88/154/45 86/152/45 85/151/45
f 85/151/46 86/152/46 82/145/46 81/142/46
f 83/148/5 87/153/5 85/151/5 81/143/5
f 88/154/6 84/150/6 82/146/6 86/152/6
f 89/155/47 90/158/47 92/163/47 91/161/47
f 91/161/48 92/163/48 96/168/48 95/167/48
f 95/167/49 96/168/49 94/166/49 93/165/49
f 93/165/50 94/166/50 90/159/50 89/156/50
f 91/162/5 95/167/5 93/165/5 89/157/5
f 96/168/6 92/164/6 90/160/6 94/166/6
f 97/169/51 98/172/51 100/177/51 99/175/51
f 99/175/52 100/177/52 104/182/52 103/181/52
f 103/181/53 104/182/53 102/180/53 101/179/53
f 101/179/54 102/180/54 98/173/54 97/170/54
f 99/176/5 103/181/5 101/179/5 97/171/5
f 104/182/6 100/178/6 98/174/6 102/180/6
f 105/183/55 106/186/55 108/191/55 107/189/55
f 107/189/56 108/191/56 112/196/56 111/195/56
f 111/195/57 112/196/57 110/194/57 109/193/57
f 109/193/58 110/194/58 106/187/58 105/184/58
f 107/190/5 111/195/5 109/193/5 105/185/5
f 112/196/6 108/192/6 106/188/6 110/194/6
f 113/197/59 114/200/59 116/205/59 115/203/59
f 115/203/60 116/205/60 120/210/60 119/209/60
f 119/209/61 120/210/61 118/208/61 117/207/61
f 117/207/62 118/208/62 114/201/62 113/198/62
f 115/204/5 119/209/5 117/207/5 113/199/5
f 120/210/6 116/206/6 114/202/6 118/208/6
f 121/211/63 122/214/63 124/219/63 123/217/63
f 123/217/64 124/219/64 128/224/64 127/223/64
f 127/223/65 128/224/65 126/222/65 125/221/65
f 125/221/66 126/222/66 122/215/66 121/212/66
f 123/218/5 127/223/5 125/221/5 121/213/5
f 128/224/6 124/220/6 122/216/6 126/222/6
