# Blender 3.5.1
# www.blender.org
mtllib main_lights.mtl
o main_lampu
v 49.765419 0.272518 12.001534
v 49.930737 0.303422 11.860685
v 49.905186 0.240822 11.848630
v 49.901684 0.235787 11.849943
v 49.744804 0.226094 11.990653
v 50.156307 0.327721 11.780134
v 50.159199 0.323565 11.778151
v 50.120831 0.243841 11.774341
v 49.970043 0.236323 11.824139
v 49.966789 0.240886 11.826510
v 49.987812 0.303681 11.836494
v 49.678883 0.272518 12.197348
v 49.686031 0.303422 12.414412
v 49.659916 0.240822 12.403635
v 49.658527 0.235787 12.400162
v 49.656960 0.226094 12.189430
v 49.778328 0.327721 12.635438
v 49.778809 0.323565 12.638910
v 49.750160 0.243841 12.613105
v 49.685471 0.236323 12.468081
v 49.685032 0.240886 12.464080
v 49.706566 0.303681 12.472902
v 48.902348 0.272518 8.682574
v 48.951180 0.303422 8.470954
v 48.923477 0.240822 8.476498
v 48.921448 0.235787 8.479639
v 48.879311 0.226094 8.686121
v 49.084328 0.327721 8.271849
v 49.085468 0.323564 8.268535
v 49.052387 0.243841 8.288338
v 48.960968 0.236323 8.418181
v 48.959770 0.240886 8.422024
v 48.982601 0.303681 8.417516
v 48.949539 0.272518 8.891392
v 49.084621 0.303422 9.061451
v 49.057228 0.240822 9.068357
v 49.054047 0.235787 9.066395
v 48.927212 0.226094 8.898097
v 49.290451 0.327721 9.183950
v 49.292904 0.323564 9.186453
v 49.254524 0.243841 9.182800
v 49.116154 0.236323 9.104885
v 49.113419 0.240886 9.101932
v 49.135967 0.303681 9.096184
v 47.079082 0.272518 10.963563
v 46.865021 0.303422 10.926874
v 46.872135 0.240822 10.954214
v 46.875389 0.235787 10.956062
v 47.083935 0.226094 10.986362
v 46.658649 0.327721 10.805289
v 46.655277 0.323564 10.804340
v 46.676933 0.243841 10.836241
v 46.811775 0.236323 10.920109
v 46.815681 0.240886 10.921087
v 46.809879 0.303681 10.898550
v 47.284870 0.272518 10.904547
v 47.446953 0.303422 10.759988
v 47.455410 0.240822 10.786943
v 47.453629 0.235787 10.790234
v 47.292835 0.226094 10.926453
v 47.557518 0.327721 10.547511
v 47.559879 0.323564 10.544918
v 47.558418 0.243841 10.583447
v 47.488518 0.236323 10.726032
v 47.485725 0.240886 10.728930
v 47.478703 0.303681 10.706745
vn -0.6541 0.3786 -0.6549
vn -0.6657 0.3854 -0.6390
vn -0.5560 0.3915 -0.7332
vn -0.6497 0.3373 -0.6813
vn -0.5693 0.4428 -0.6927
vn -0.3175 0.1977 -0.9274
vn -0.3034 0.2545 -0.9182
vn -0.3475 0.1759 -0.9210
vn -0.2635 0.3823 -0.8857
vn -0.3631 0.1899 -0.9122
vn -0.3284 0.2391 -0.9138
vn -0.9261 0.3752 -0.0399
vn -0.9127 0.3998 0.0848
vn -0.9208 0.3851 -0.0626
vn -0.9389 0.3410 -0.0458
vn -0.8879 0.4585 0.0374
vn -0.8996 0.1974 0.3895
vn -0.9148 0.1753 0.3639
vn -0.8839 0.2575 0.3903
vn -0.8551 0.1651 0.4915
vn -0.9189 0.1896 0.3459
vn -0.8950 0.2416 0.3750
vn -0.9155 0.3786 -0.1362
vn -0.9154 0.3854 -0.1165
vn -0.8834 0.3915 -0.2575
vn -0.9277 0.3373 -0.1600
vn -0.8700 0.4428 -0.2170
vn -0.8076 0.1977 -0.5556
vn -0.7908 0.2545 -0.5566
vn -0.8279 0.1759 -0.5326
vn -0.7394 0.3823 -0.5542
vn -0.8352 0.1899 -0.5162
vn -0.8082 0.2391 -0.5381
vn -0.7675 0.3752 0.5198
vn -0.6824 0.3998 0.6120
vn -0.7767 0.3851 0.4984
vn -0.7813 0.3411 0.5227
vn -0.6908 0.4585 0.5591
vn -0.4904 0.1974 0.8489
vn -0.5178 0.1753 0.8374
vn -0.4773 0.2575 0.8402
vn -0.3939 0.1651 0.9042
vn -0.5319 0.1896 0.8253
vn -0.4953 0.2417 0.8344
vn -0.0838 0.3786 0.9218
vn -0.0641 0.3855 0.9205
vn -0.2068 0.3915 0.8966
vn -0.1068 0.3373 0.9353
vn -0.1671 0.4428 0.8809
vn -0.5086 0.1977 0.8380
vn -0.5106 0.2545 0.8213
vn -0.4845 0.1759 0.8569
vn -0.5112 0.3823 0.7698
vn -0.4677 0.1899 0.8632
vn -0.4912 0.2391 0.8376
vn 0.5627 0.3752 0.7366
vn 0.6499 0.3997 0.6464
vn 0.5419 0.3851 0.7471
vn 0.5664 0.3410 0.7503
vn 0.5976 0.4585 0.6578
vn 0.8754 0.1974 0.4412
vn 0.8655 0.1752 0.4692
vn 0.8660 0.2575 0.4286
vn 0.9252 0.1651 0.3417
vn 0.8543 0.1896 0.4839
vn 0.8613 0.2416 0.4469
vt 0.963685 0.168906
vt 0.760651 0.167785
vt 0.769804 0.236940
vt 0.775390 0.240518
vt 0.962152 0.237387
vt 0.724807 0.163226
vt 0.725366 0.166326
vt 0.704109 0.243275
vt 0.629891 0.240359
vt 0.628591 0.237866
vt 0.631958 0.162783
vt 0.963685 0.168906
vt 0.760651 0.167785
vt 0.769804 0.236940
vt 0.775390 0.240518
vt 0.962152 0.237387
vt 0.724807 0.163226
vt 0.725366 0.166326
vt 0.704109 0.243275
vt 0.629891 0.240359
vt 0.628591 0.237866
vt 0.631958 0.162783
vt 0.963685 0.168906
vt 0.760651 0.167785
vt 0.769804 0.236940
vt 0.775390 0.240518
vt 0.962152 0.237387
vt 0.724807 0.163226
vt 0.725366 0.166326
vt 0.704109 0.243275
vt 0.629891 0.240359
vt 0.628591 0.237866
vt 0.631958 0.162783
vt 0.963685 0.168906
vt 0.760651 0.167785
vt 0.769804 0.236940
vt 0.775390 0.240518
vt 0.962152 0.237387
vt 0.724807 0.163226
vt 0.725366 0.166326
vt 0.704109 0.243275
vt 0.629891 0.240359
vt 0.628591 0.237866
vt 0.631958 0.162783
vt 0.963685 0.168906
vt 0.760651 0.167785
vt 0.769804 0.236940
vt 0.775390 0.240518
vt 0.962152 0.237387
vt 0.724807 0.163226
vt 0.725366 0.166326
vt 0.704109 0.243275
vt 0.629891 0.240359
vt 0.628591 0.237866
vt 0.631958 0.162783
vt 0.963685 0.168906
vt 0.760651 0.167785
vt 0.769804 0.236940
vt 0.775390 0.240518
vt 0.962152 0.237387
vt 0.724807 0.163226
vt 0.725366 0.166326
vt 0.704109 0.243275
vt 0.629891 0.240359
vt 0.628591 0.237866
vt 0.631958 0.162783
s 1
usemtl blinn8SG
f 2/2/1 3/3/2 1/1/3
f 3/3/2 4/4/4 1/1/3
f 4/4/4 5/5/5 1/1/3
f 8/8/6 9/9/7 7/7/8
f 9/9/7 10/10/9 7/7/8
f 7/7/8 10/10/9 6/6/10
f 6/6/10 10/10/9 11/11/11
f 13/13/12 12/12/13 14/14/14
f 14/14/14 12/12/13 15/15/15
f 15/15/15 12/12/13 16/16/16
f 19/19/17 18/18/18 20/20/19
f 20/20/19 18/18/18 21/21/20
f 18/18/18 17/17/21 21/21/20
f 17/17/21 22/22/22 21/21/20
f 24/24/23 25/25/24 23/23/25
f 25/25/24 26/26/26 23/23/25
f 26/26/26 27/27/27 23/23/25
f 30/30/28 31/31/29 29/29/30
f 31/31/29 32/32/31 29/29/30
f 29/29/30 32/32/31 28/28/32
f 28/28/32 32/32/31 33/33/33
f 35/35/34 34/34/35 36/36/36
f 36/36/36 34/34/35 37/37/37
f 37/37/37 34/34/35 38/38/38
f 41/41/39 40/40/40 42/42/41
f 42/42/41 40/40/40 43/43/42
f 40/40/40 39/39/43 43/43/42
f 39/39/43 44/44/44 43/43/42
f 46/46/45 47/47/46 45/45/47
f 47/47/46 48/48/48 45/45/47
f 48/48/48 49/49/49 45/45/47
f 52/52/50 53/53/51 51/51/52
f 53/53/51 54/54/53 51/51/52
f 51/51/52 54/54/53 50/50/54
f 50/50/54 54/54/53 55/55/55
f 57/57/56 56/56/57 58/58/58
f 58/58/58 56/56/57 59/59/59
f 59/59/59 56/56/57 60/60/60
f 63/63/61 62/62/62 64/64/63
f 64/64/63 62/62/62 65/65/64
f 62/62/62 61/61/65 65/65/64
f 61/61/65 66/66/66 65/65/64
