# Blender 3.5.1
# www.blender.org
mtllib plane.mtl
o Plane
v 55.362617 -0.118328 11.427625
v 54.504253 -0.118328 14.162977
v 55.581711 -0.118328 11.924758
v 55.597061 -0.118328 12.504261
v 55.407162 -0.118328 13.109407
v 55.030605 -0.118328 13.680963
v 47.500397 -0.118328 4.418954
v 50.366676 -0.118328 4.477086
v 48.125023 -0.118328 4.073662
v 48.786781 -0.118328 3.898893
v 49.420895 -0.118328 3.911754
v 49.965290 -0.118328 4.110985
v 42.370590 -0.118328 20.766102
v 45.236870 -0.118328 20.824234
v 42.771976 -0.118328 21.132202
v 43.316372 -0.118328 21.331432
v 43.950485 -0.118328 21.344294
v 44.612244 -0.118328 21.169525
v 37.374649 -0.118328 13.815562
v 38.233013 -0.118328 11.080210
v 37.155556 -0.118328 13.318429
v 37.140205 -0.118328 12.738926
v 37.330105 -0.118328 12.133780
v 37.706661 -0.118328 11.562224
vn -0.0000 1.0000 -0.0000
vt 0.143344 0.000000
vt 0.000000 0.143344
vt 0.099048 0.007016
vt 0.059088 0.027376
vt 0.027376 0.059088
vt 0.007016 0.099048
vt 1.000000 0.143344
vt 0.856656 0.000000
vt 0.992984 0.099048
vt 0.972624 0.059088
vt 0.940912 0.027376
vt 0.900952 0.007016
vt 0.143344 1.000000
vt 0.000000 0.856656
vt 0.099048 0.992984
vt 0.059088 0.972624
vt 0.027376 0.940912
vt 0.007016 0.900952
vt 0.856656 1.000000
vt 1.000000 0.856656
vt 0.900952 0.992984
vt 0.940912 0.972624
vt 0.972624 0.940912
vt 0.992984 0.900952
s 0
usemtl Material.003
f 2/2/1 6/6/1 5/5/1 4/4/1 3/3/1 1/1/1 8/8/1 12/12/1 11/11/1 10/10/1 9/9/1 7/7/1 20/20/1 24/24/1 23/23/1 22/22/1 21/21/1 19/19/1 13/13/1 15/15/1 16/16/1 17/17/1 18/18/1 14/14/1
