# Blender 3.5.1
# www.blender.org
mtllib walls.mtl
o Cube.011
v -36.861553 -0.027079 16.962963
v -36.861553 10.713085 16.962963
v -35.115986 -0.027079 16.107086
v -35.115986 10.713085 16.107086
v -28.741844 -0.027079 33.523151
v -28.741844 10.713085 33.523151
v -26.996275 -0.027079 32.667274
v -26.996275 10.713085 32.667274
v 7.051050 -0.577337 36.129562
v 7.051050 10.182695 36.129562
v 7.049818 -0.577337 34.409149
v 7.049818 10.182695 34.409149
v 29.836985 -0.577337 36.113235
v 29.836985 10.182695 36.113235
v 29.835752 -0.577337 34.392822
v 29.835752 10.182695 34.392822
v 31.275721 0.267980 34.847839
v 31.275721 11.028011 34.847839
v 29.873281 0.267980 33.851357
v 29.873281 11.028011 33.851357
v 40.836174 0.267980 21.392580
v 40.836174 11.028011 21.392580
v 39.433731 0.267980 20.396097
v 39.433731 11.028011 20.396097
v 39.205025 -1.347145 22.119570
v 39.205025 11.907102 22.119570
v 37.487022 -1.347145 21.775524
v 37.487022 11.907102 21.775524
v 43.609306 -1.347145 0.126532
v 43.609306 11.907102 0.126532
v 41.891296 -1.347145 -0.217514
v 41.891296 11.907102 -0.217514
v 42.993195 -1.598838 -1.610285
v 42.993195 11.655409 -1.610285
v 41.267784 -1.598838 -1.356314
v 41.267784 11.655409 -1.356314
v 40.520287 -1.598838 -18.410437
v 40.520287 11.655409 -18.410437
v 38.794884 -1.598838 -18.156462
v 38.794884 11.655409 -18.156462
v 40.128128 -0.234992 -19.206213
v 40.128128 13.019255 -19.206213
v 39.624863 -0.234992 -17.469324
v 39.624863 13.019255 -17.469324
v 15.941874 -0.234992 -26.214205
v 15.941874 13.019255 -26.214205
v 15.438608 -0.234992 -24.477316
v 15.438608 13.019255 -24.477316
v 13.764521 -0.204864 -26.306524
v 13.764521 13.049383 -26.306524
v 13.540815 -0.204864 -24.514116
v 13.540815 13.049383 -24.514116
v -13.820328 -0.204864 -29.749228
v -13.820328 13.049383 -29.749228
v -14.044029 -0.204864 -27.956820
v -14.044029 13.049383 -27.956820
v -15.482765 0.098900 -29.768454
v -15.482765 13.353147 -29.768454
v -14.550838 0.098900 -28.142874
v -14.550838 13.353147 -28.142874
v -32.905525 0.098900 -19.780172
v -32.905525 13.353147 -19.780172
v -31.973600 0.098900 -18.154593
v -31.973600 13.353147 -18.154593
v -35.080811 0.236022 -19.020594
v -35.080811 13.490269 -19.020594
v -33.370380 0.236022 -18.332399
v -33.370380 13.490269 -18.332399
v -41.799400 0.236022 -2.322199
v -41.799400 13.490269 -2.322199
v -40.088970 0.236022 -1.634008
v -40.088970 13.490269 -1.634008
v -40.970295 -0.633039 0.842455
v -40.970295 12.621206 0.842455
v -39.180122 -0.633039 0.460665
v -39.180122 12.621206 0.460665
v -37.862900 -0.633039 15.412648
v -37.862900 12.621206 15.412648
v -36.072727 -0.633039 15.030858
v -36.072727 12.621206 15.030858
v -25.863808 -0.247885 35.258266
v -25.863808 10.099644 35.258266
v -25.620979 -0.247885 33.328346
v -25.620979 10.099644 33.328346
v -6.958754 -0.247885 37.636971
v -6.958754 10.099644 37.636971
v -6.715921 -0.247885 35.707047
v -6.715921 10.099644 35.707047
vn -0.4402 -0.0000 -0.8979
vn 0.8979 -0.0000 -0.4402
vn 0.4402 -0.0000 0.8979
vn -0.8979 -0.0000 0.4402
vn -0.0000 -1.0000 -0.0000
vn -0.0000 1.0000 -0.0000
vn -1.0000 -0.0000 0.0007
vn -0.8948 -0.0000 -0.4466
vn -0.0007 -0.0000 -1.0000
vn 1.0000 -0.0000 -0.0007
vn 0.8948 -0.0000 0.4466
vn 0.0007 -0.0000 1.0000
vn -0.1132 -0.0000 0.9936
vn -0.5792 -0.0000 0.8152
vn -0.8152 -0.0000 -0.5792
vn 0.1132 -0.0000 -0.9936
vn 0.5792 -0.0000 -0.8152
vn 0.8152 -0.0000 0.5792
vn 0.6569 -0.0000 0.7540
vn -0.1964 -0.0000 0.9805
vn -0.9805 -0.0000 -0.1964
vn -0.6569 -0.0000 -0.7540
vn 0.1964 -0.0000 -0.9805
vn 0.9805 -0.0000 0.1964
vn 0.9841 -0.0000 0.1777
vn 0.1456 -0.0000 0.9893
vn -0.9893 -0.0000 0.1456
vn -0.9841 -0.0000 -0.1777
vn -0.1456 -0.0000 -0.9893
vn 0.9893 -0.0000 -0.1456
vn 0.9605 -0.0000 0.2783
vn 0.5225 -0.0000 0.8526
vn -0.2783 -0.0000 0.9605
vn -0.9605 -0.0000 -0.2783
vn -0.5225 -0.0000 -0.8526
vn 0.2783 -0.0000 -0.9605
vn 0.9923 -0.0000 0.1238
vn 0.7590 -0.0000 0.6511
vn -0.1238 -0.0000 0.9923
vn -0.9923 -0.0000 -0.1238
vn -0.7590 -0.0000 -0.6511
vn 0.1238 -0.0000 -0.9923
vn 0.8675 -0.0000 -0.4974
vn 0.4974 -0.0000 0.8675
vn -0.8675 -0.0000 0.4974
vn -0.4974 -0.0000 -0.8675
vn -0.3439 -0.0000 -0.9390
vn 0.3733 -0.0000 -0.9277
vn 0.9277 -0.0000 0.3733
vn 0.3439 -0.0000 0.9390
vn -0.3733 -0.0000 0.9277
vn -0.9277 -0.0000 -0.3733
vn -0.9985 -0.0000 -0.0554
vn -0.2086 -0.0000 -0.9780
vn 0.9780 -0.0000 -0.2086
vn 0.9985 -0.0000 0.0554
vn 0.2086 -0.0000 0.9780
vn -0.9780 -0.0000 0.2086
vn -0.9922 -0.0000 -0.1248
vn -0.7577 -0.0000 -0.6526
vn 0.1248 -0.0000 -0.9922
vn 0.9922 -0.0000 0.1248
vn 0.7577 -0.0000 0.6526
vn -0.1248 -0.0000 0.9922
vt 0.375000 0.000000
vt 0.375000 1.000000
vt 0.125000 0.750000
vt 0.625000 0.000000
vt 0.625000 1.000000
vt 0.875000 0.750000
vt 0.375000 0.250000
vt 0.125000 0.500000
vt 0.625000 0.250000
vt 0.875000 0.500000
vt 0.375000 0.750000
vt 0.625000 0.750000
vt 0.375000 0.500000
vt 0.625000 0.500000
vt 0.375000 0.000000
vt 0.375000 1.000000
vt 0.125000 0.750000
vt 0.625000 0.000000
vt 0.625000 1.000000
vt 0.875000 0.750000
vt 0.375000 0.250000
vt 0.125000 0.500000
vt 0.625000 0.250000
vt 0.875000 0.500000
vt 0.375000 0.750000
vt 0.625000 0.750000
vt 0.375000 0.500000
vt 0.625000 0.500000
vt 0.375000 0.000000
vt 0.375000 1.000000
vt 0.125000 0.750000
vt 0.625000 0.000000
vt 0.625000 1.000000
vt 0.875000 0.750000
vt 0.375000 0.250000
vt 0.125000 0.500000
vt 0.625000 0.250000
vt 0.875000 0.500000
vt 0.375000 0.750000
vt 0.625000 0.750000
vt 0.375000 0.500000
vt 0.625000 0.500000
vt 0.375000 0.000000
vt 0.375000 1.000000
vt 0.125000 0.750000
vt 0.625000 0.000000
vt 0.625000 1.000000
vt 0.875000 0.750000
vt 0.375000 0.250000
vt 0.125000 0.500000
vt 0.625000 0.250000
vt 0.875000 0.500000
vt 0.375000 0.750000
vt 0.625000 0.750000
vt 0.375000 0.500000
vt 0.625000 0.500000
vt 0.375000 0.000000
vt 0.375000 1.000000
vt 0.125000 0.750000
vt 0.625000 0.000000
vt 0.625000 1.000000
vt 0.875000 0.750000
vt 0.375000 0.250000
vt 0.125000 0.500000
vt 0.625000 0.250000
vt 0.875000 0.500000
vt 0.375000 0.750000
vt 0.625000 0.750000
vt 0.375000 0.500000
vt 0.625000 0.500000
vt 0.375000 0.000000
vt 0.375000 1.000000
vt 0.125000 0.750000
vt 0.625000 0.000000
vt 0.625000 1.000000
vt 0.875000 0.750000
vt 0.375000 0.250000
vt 0.125000 0.500000
vt 0.625000 0.250000
vt 0.875000 0.500000
vt 0.375000 0.750000
vt 0.625000 0.750000
vt 0.375000 0.500000
vt 0.625000 0.500000
vt 0.375000 0.000000
vt 0.375000 1.000000
vt 0.125000 0.750000
vt 0.625000 0.000000
vt 0.625000 1.000000
vt 0.875000 0.750000
vt 0.375000 0.250000
vt 0.125000 0.500000
vt 0.625000 0.250000
vt 0.875000 0.500000
vt 0.375000 0.750000
vt 0.625000 0.750000
vt 0.375000 0.500000
vt 0.625000 0.500000
vt 0.375000 0.000000
vt 0.375000 1.000000
vt 0.125000 0.750000
vt 0.625000 0.000000
vt 0.625000 1.000000
vt 0.875000 0.750000
vt 0.375000 0.250000
vt 0.125000 0.500000
vt 0.625000 0.250000
vt 0.875000 0.500000
vt 0.375000 0.750000
vt 0.625000 0.750000
vt 0.375000 0.500000
vt 0.625000 0.500000
vt 0.375000 0.000000
vt 0.375000 1.000000
vt 0.125000 0.750000
vt 0.625000 0.000000
vt 0.625000 1.000000
vt 0.875000 0.750000
vt 0.375000 0.250000
vt 0.125000 0.500000
vt 0.625000 0.250000
vt 0.875000 0.500000
vt 0.375000 0.750000
vt 0.625000 0.750000
vt 0.375000 0.500000
vt 0.625000 0.500000
vt 0.375000 0.000000
vt 0.375000 1.000000
vt 0.125000 0.750000
vt 0.625000 0.000000
vt 0.625000 1.000000
vt 0.875000 0.750000
vt 0.375000 0.250000
vt 0.125000 0.500000
vt 0.625000 0.250000
vt 0.875000 0.500000
vt 0.375000 0.750000
vt 0.625000 0.750000
vt 0.375000 0.500000
vt 0.625000 0.500000
vt 0.375000 0.000000
vt 0.375000 1.000000
vt 0.125000 0.750000
vt 0.625000 0.000000
vt 0.625000 1.000000
vt 0.875000 0.750000
vt 0.375000 0.250000
vt 0.125000 0.500000
vt 0.625000 0.250000
vt 0.875000 0.500000
vt 0.375000 0.750000
vt 0.625000 0.750000
vt 0.375000 0.500000
vt 0.625000 0.500000
s 1
f 1/1/1 2/4/1 4/9/1 3/7/1
f 3/7/2 4/9/2 8/14/2 7/13/2
f 7/13/3 8/14/3 6/12/3 5/11/3
f 5/11/4 6/12/4 2/5/4 1/2/4
f 3/8/5 7/13/5 5/11/5 1/3/5
f 8/14/6 4/10/6 2/6/6 6/12/6
f 9/15/7 10/18/7 12/23/8 11/21/8
f 11/21/8 12/23/8 16/28/9 15/27/9
f 15/27/10 16/28/10 14/26/11 13/25/11
f 13/25/11 14/26/11 10/19/12 9/16/12
f 11/22/5 15/27/5 13/25/5 9/17/5
f 16/28/6 12/24/6 10/20/6 14/26/6
f 17/29/13 18/32/13 20/37/14 19/35/14
f 19/35/15 20/37/15 24/42/16 23/41/16
f 23/41/16 24/42/16 22/40/17 21/39/17
f 21/39/18 22/40/18 18/33/13 17/30/13
f 19/36/5 23/41/5 21/39/5 17/31/5
f 24/42/6 20/38/6 18/34/6 22/40/6
f 25/43/19 26/46/19 28/51/20 27/49/20
f 27/49/21 28/51/21 32/56/22 31/55/22
f 31/55/22 32/56/22 30/54/23 29/53/23
f 29/53/24 30/54/24 26/47/19 25/44/19
f 27/50/5 31/55/5 29/53/5 25/45/5
f 32/56/6 28/52/6 26/48/6 30/54/6
f 33/57/25 34/60/25 36/65/26 35/63/26
f 35/63/27 36/65/27 40/70/28 39/69/28
f 39/69/28 40/70/28 38/68/29 37/67/29
f 37/67/30 38/68/30 34/61/25 33/58/25
f 35/64/5 39/69/5 37/67/5 33/59/5
f 40/70/6 36/66/6 34/62/6 38/68/6
f 41/71/31 42/74/31 44/79/32 43/77/32
f 43/77/32 44/79/32 48/84/33 47/83/33
f 47/83/34 48/84/34 46/82/35 45/81/35
f 45/81/35 46/82/35 42/75/36 41/72/36
f 43/78/5 47/83/5 45/81/5 41/73/5
f 48/84/6 44/80/6 42/76/6 46/82/6
f 49/85/37 50/88/37 52/93/38 51/91/38
f 51/91/38 52/93/38 56/98/39 55/97/39
f 55/97/40 56/98/40 54/96/41 53/95/41
f 53/95/41 54/96/41 50/89/42 49/86/42
f 51/92/5 55/97/5 53/95/5 49/87/5
f 56/98/6 52/94/6 50/90/6 54/96/6
f 57/99/43 58/102/43 60/107/43 59/105/43
f 59/105/44 60/107/44 64/112/44 63/111/44
f 63/111/45 64/112/45 62/110/45 61/109/45
f 61/109/46 62/110/46 58/103/46 57/100/46
f 59/106/5 63/111/5 61/109/5 57/101/5
f 64/112/6 60/108/6 58/104/6 62/110/6
f 65/113/47 66/116/47 68/121/48 67/119/48
f 67/119/49 68/121/49 72/126/50 71/125/50
f 71/125/50 72/126/50 70/124/51 69/123/51
f 69/123/52 70/124/52 66/117/47 65/114/47
f 67/120/5 71/125/5 69/123/5 65/115/5
f 72/126/6 68/122/6 66/118/6 70/124/6
f 73/127/53 74/130/53 76/135/54 75/133/54
f 75/133/55 76/135/55 80/140/56 79/139/56
f 79/139/56 80/140/56 78/138/57 77/137/57
f 77/137/58 78/138/58 74/131/53 73/128/53
f 75/134/5 79/139/5 77/137/5 73/129/5
f 80/140/6 76/136/6 74/132/6 78/138/6
f 81/141/59 82/144/59 84/149/60 83/147/60
f 83/147/60 84/149/60 88/154/61 87/153/61
f 87/153/62 88/154/62 86/152/63 85/151/63
f 85/151/63 86/152/63 82/145/64 81/142/64
f 83/148/5 87/153/5 85/151/5 81/143/5
f 88/154/6 84/150/6 82/146/6 86/152/6
