# Blender 3.5.1
# www.blender.org
mtllib kaki_besi.mtl
o kaki
v 26.934523 -0.049362 48.247677
v 26.934523 -0.049362 47.080341
v 28.101856 -0.049362 47.080341
v 28.101856 -0.049362 48.247677
v 26.934521 -0.081814 48.247677
v 26.934523 -0.081814 47.080341
v 28.101856 -0.081814 47.080341
v 28.101856 -0.081814 48.247677
v 37.439445 -0.049362 48.247677
v 37.439445 -0.049362 47.080341
v 38.606781 -0.049362 47.080341
v 38.606781 -0.049362 48.247681
v 37.439445 -0.081814 48.247677
v 37.439445 -0.081814 47.080341
v 38.606781 -0.081814 47.080341
v 38.606781 -0.081814 48.247677
vn 0.5773 -0.5774 -0.5774
vn 0.5773 -0.5774 0.5773
vn -0.5774 -0.5774 0.5774
vn -0.5774 -0.5774 -0.5774
vn 0.5774 0.5773 -0.5773
vn -0.5774 0.5774 -0.5774
vn -0.5774 0.5774 0.5773
vn 0.5774 0.5773 0.5774
vn 0.5774 -0.5773 -0.5774
vn 0.5774 -0.5774 0.5774
vn -0.5774 -0.5773 0.5774
vn -0.5773 -0.5773 -0.5774
vn 0.5773 0.5774 -0.5773
vn -0.5774 0.5774 -0.5773
vn -0.5773 0.5774 0.5773
vn 0.5774 0.5774 0.5774
s 1
usemtl baseChao
f 1//1 2//2 3//3 4//4
f 5//5 8//6 7//7 6//8
f 1//1 5//5 6//8 2//2
f 2//2 6//8 7//7 3//3
f 3//3 7//7 8//6 4//4
f 5//5 1//1 4//4 8//6
f 9//9 10//10 11//11 12//12
f 13//13 16//14 15//15 14//16
f 9//9 13//13 14//16 10//10
f 10//10 14//16 15//15 11//11
f 11//11 15//15 16//14 12//12
f 13//13 9//9 12//12 16//14
