# Blender 3.5.1
# www.blender.org
mtllib kursi.mtl
o Cube.005
v 30.381645 0.863076 48.744011
v 30.381645 0.939355 48.744011
v 30.381645 0.769428 47.644558
v 30.381645 0.935798 47.644558
v 37.804291 0.863076 48.744011
v 37.804291 0.939355 48.744011
v 37.804291 0.769428 47.644558
v 37.804291 0.935798 47.644558
v 30.382515 0.864987 48.755779
v 37.804810 0.864987 48.755779
v 30.382515 0.867766 48.763721
v 37.804810 0.867766 48.763721
v 30.382515 0.872244 48.770847
v 37.804810 0.872244 48.770847
v 30.382515 0.878194 48.776798
v 37.804810 0.878194 48.776798
v 30.382515 0.885320 48.781277
v 37.804810 0.885320 48.781277
v 30.382515 0.893263 48.784054
v 37.804810 0.893263 48.784054
v 30.382515 0.901625 48.784996
v 37.804810 0.901625 48.784996
v 30.382515 0.909988 48.784054
v 37.804810 0.909988 48.784054
v 30.382515 0.917931 48.781277
v 37.804810 0.917931 48.781277
v 30.382515 0.925056 48.776798
v 37.804810 0.925056 48.776798
v 30.382515 0.931007 48.770847
v 37.804810 0.931007 48.770847
v 30.382515 0.935484 48.763721
v 37.804810 0.935484 48.763721
v 30.382515 0.938264 48.755779
v 37.804810 0.938264 48.755779
vn -0.7020 0.7115 0.0313
vn -0.5776 0.5764 -0.5780
vn -0.5731 -0.6037 -0.5542
vn -0.7036 -0.7053 0.0869
vn -0.6777 -0.7130 0.1799
vn -0.6827 -0.6582 0.3173
vn -0.6827 -0.5711 0.4558
vn -0.6826 -0.4555 0.5715
vn -0.6826 -0.3170 0.6585
vn -0.6826 -0.1625 0.7125
vn -0.6826 -0.0000 0.7308
vn -0.6826 0.1625 0.7125
vn -0.6826 0.3170 0.6585
vn -0.6826 0.4555 0.5714
vn -0.6826 0.5712 0.4558
vn -0.6827 0.6582 0.3173
vn -0.6708 0.7250 0.1562
vn 0.5775 0.5763 -0.5783
vn 0.5730 -0.6035 -0.5545
vn 0.6924 -0.7161 0.0887
vn 0.6904 0.7227 0.0325
vn 0.6923 -0.6992 0.1783
vn 0.6828 -0.6583 0.3168
vn 0.6828 -0.5713 0.4554
vn 0.6828 -0.4556 0.5711
vn 0.6828 -0.3171 0.6582
vn 0.6828 -0.1626 0.7122
vn 0.6829 -0.0000 0.7306
vn 0.6828 0.1626 0.7122
vn 0.6828 0.3171 0.6582
vn 0.6828 0.4556 0.5711
vn 0.6828 0.5713 0.4554
vn 0.6828 0.6583 0.3168
vn 0.6853 0.7113 0.1561
s 1
usemtl banco
f 2//1 4//2 3//3 1//4 9//5 11//6 13//7 15//8 17//9 19//10 21//11 23//12 25//13 27//14 29//15 31//16 33//17
f 4//2 8//18 7//19 3//3
f 1//4 3//3 7//19 5//20
f 6//21 8//18 4//2 2//1
f 9//5 10//22 12//23 11//6
f 11//6 12//23 14//24 13//7
f 13//7 14//24 16//25 15//8
f 15//8 16//25 18//26 17//9
f 17//9 18//26 20//27 19//10
f 19//10 20//27 22//28 21//11
f 21//11 22//28 24//29 23//12
f 23//12 24//29 26//30 25//13
f 25//13 26//30 28//31 27//14
f 27//14 28//31 30//32 29//15
f 29//15 30//32 32//33 31//16
f 31//16 32//33 34//34 33//17
f 7//19 8//18 6//21 34//34 32//33 30//32 28//31 26//30 24//29 22//28 20//27 18//26 16//25 14//24 12//23 10//22 5//20
f 1//4 5//20 10//22 9//5
f 2//1 33//17 34//34 6//21
