# Blender 3.5.1
# www.blender.org
mtllib papan.mtl
o Cube.006
v 37.404686 4.759890 47.662605
v 37.404686 1.658365 47.662609
v 37.404686 4.759890 47.676228
v 37.404686 1.658365 47.676228
v 28.324587 4.759890 47.662605
v 28.324587 1.658365 47.662609
v 28.324587 4.759890 47.676228
v 28.324587 1.658365 47.676228
vn -0.5774 0.5774 0.5774
vn -0.5774 0.5774 -0.5774
vn -0.5774 -0.5774 -0.5774
vn -0.5774 -0.5774 0.5774
vn 0.5774 0.5774 -0.5774
vn 0.5774 -0.5774 -0.5774
vn 0.5774 0.5774 0.5774
vn 0.5774 -0.5774 0.5774
s 1
usemtl vidro
f 2//1 4//2 3//3 1//4
f 4//2 8//5 7//6 3//3
f 8//5 6//7 5//8 7//6
f 6//7 2//1 1//4 5//8
f 1//4 3//3 7//6 5//8
f 6//7 8//5 4//2 2//1
