# Blender 3.5.1
# www.blender.org
mtllib papan_tiang.mtl
o Cube_Cube.005
v 25.615324 2.558907 49.511326
v 25.615324 3.849586 49.511326
v 25.615324 2.558907 48.504242
v 25.615324 3.849586 48.504242
v 25.526772 2.558907 49.511326
v 25.526772 3.849586 49.511326
v 25.526772 2.558907 48.504242
v 25.526772 3.849586 48.504242
vn -1.0000 -0.0000 -0.0000
vn -0.0000 -0.0000 1.0000
vn 1.0000 -0.0000 -0.0000
vn -0.0000 -0.0000 -1.0000
vn -0.0000 1.0000 -0.0000
vn -0.0000 -1.0000 -0.0000
s 0
usemtl placa
f 2//1 4//1 3//1 1//1
f 4//2 8//2 7//2 3//2
f 8//3 6//3 5//3 7//3
f 6//4 2//4 1//4 5//4
f 1//5 3//5 7//5 5//5
f 6//6 8//6 4//6 2//6
