# Blender 3.5.1
# www.blender.org
mtllib pot.mtl
o pot.001
v 25.324364 -0.034402 48.039360
v 25.146936 1.014876 48.216785
v 25.324364 -0.034402 47.344933
v 25.146936 1.014876 47.167507
v 26.018787 -0.034402 48.039360
v 26.196215 1.014876 48.216785
v 26.018787 -0.034402 47.344933
v 26.196215 1.014876 47.167507
v 25.230026 1.014876 48.133694
v 25.230026 1.014876 47.250599
v 26.113125 1.014876 48.133694
v 26.113125 1.014876 47.250599
v 25.230026 0.966225 48.133694
v 25.230026 0.966225 47.250599
v 26.113125 0.966225 48.133694
v 26.113125 0.966225 47.250599
v 25.155369 0.965006 48.208351
v 25.155369 0.965006 47.175941
v 26.187782 0.965006 47.175941
v 26.187782 0.965006 48.208351
v 39.291332 -0.034402 48.039360
v 39.113907 1.014876 48.216785
v 39.291332 -0.034402 47.344933
v 39.113907 1.014876 47.167507
v 39.985756 -0.034402 48.039360
v 40.163185 1.014876 48.216785
v 39.985756 -0.034402 47.344933
v 40.163185 1.014876 47.167507
v 39.196995 1.014876 48.133694
v 39.196995 1.014876 47.250599
v 40.080093 1.014876 48.133694
v 40.080093 1.014876 47.250599
v 39.196995 0.966225 48.133694
v 39.196995 0.966225 47.250599
v 40.080093 0.966225 48.133694
v 40.080093 0.966225 47.250599
v 39.122337 0.965006 48.208351
v 39.122337 0.965006 47.175941
v 40.154751 0.965006 47.175941
v 40.154751 0.965006 48.208351
v 31.692341 -0.034402 46.128899
v 31.514914 1.014876 46.306324
v 31.692341 -0.034402 45.434471
v 31.514914 1.014876 45.257046
v 32.386765 -0.034402 46.128899
v 32.564194 1.014876 46.306324
v 32.386765 -0.034402 45.434471
v 32.564194 1.014876 45.257046
v 31.598003 1.014876 46.223232
v 31.598003 1.014876 45.340137
v 32.481102 1.014876 46.223232
v 32.481102 1.014876 45.340137
v 31.598003 0.966225 46.223232
v 31.598003 0.966225 45.340137
v 32.481102 0.966225 46.223232
v 32.481102 0.966225 45.340137
v 31.523346 0.965006 46.297890
v 31.523346 0.965006 45.265476
v 32.555759 0.965006 45.265476
v 32.555759 0.965006 46.297890
vn -0.9860 -0.1667 -0.0000
vn -0.0000 -0.1667 -0.9860
vn 0.9860 -0.1667 -0.0000
vn -0.0000 -0.1667 0.9860
vn -0.0000 -1.0000 -0.0000
vn -0.0000 -0.0000 -1.0000
vn -1.0000 -0.0000 -0.0000
vn 1.0000 -0.0000 -0.0000
vn -0.0000 1.0000 -0.0000
vn -0.0000 -0.0000 1.0000
s 0
usemtl vasoFlor
f 17//1 18//1 3//1 1//1
f 18//2 19//2 7//2 3//2
f 19//3 20//3 5//3 7//3
f 20//4 17//4 1//4 5//4
f 1//5 3//5 7//5 5//5
f 9//6 11//6 15//6 13//6
f 11//7 12//7 16//7 15//7
f 10//8 9//8 13//8 14//8
f 37//1 38//1 23//1 21//1
f 38//2 39//2 27//2 23//2
f 39//3 40//3 25//3 27//3
f 40//4 37//4 21//4 25//4
f 21//5 23//5 27//5 25//5
f 29//6 31//6 35//6 33//6
f 31//7 32//7 36//7 35//7
f 30//8 29//8 33//8 34//8
f 57//1 58//1 43//1 41//1
f 58//2 59//2 47//2 43//2
f 59//3 60//3 45//3 47//3
f 60//4 57//4 41//4 45//4
f 41//5 43//5 47//5 45//5
f 49//6 51//6 55//6 53//6
f 51//7 52//7 56//7 55//7
f 50//8 49//8 53//8 54//8
usemtl bordaVasoFlor
f 8//9 4//9 10//9 12//9
f 6//9 8//9 12//9 11//9
f 4//9 2//9 9//9 10//9
f 2//9 6//9 11//9 9//9
f 12//10 10//10 14//10 16//10
f 6//4 2//4 17//4 20//4
f 8//3 6//3 20//3 19//3
f 4//2 8//2 19//2 18//2
f 2//1 4//1 18//1 17//1
f 28//9 24//9 30//9 32//9
f 26//9 28//9 32//9 31//9
f 24//9 22//9 29//9 30//9
f 22//9 26//9 31//9 29//9
f 32//10 30//10 34//10 36//10
f 26//4 22//4 37//4 40//4
f 28//3 26//3 40//3 39//3
f 24//2 28//2 39//2 38//2
f 22//1 24//1 38//1 37//1
f 48//9 44//9 50//9 52//9
f 46//9 48//9 52//9 51//9
f 44//9 42//9 49//9 50//9
f 42//9 46//9 51//9 49//9
f 52//10 50//10 54//10 56//10
f 46//4 42//4 57//4 60//4
f 48//3 46//3 60//3 59//3
f 44//2 48//2 59//2 58//2
f 42//1 44//1 58//1 57//1
usemtl interiorVaso
f 15//9 16//9 14//9 13//9
f 35//9 36//9 34//9 33//9
f 55//9 56//9 54//9 53//9
