# Blender 3.5.1
# www.blender.org
mtllib ground.mtl
o ground
v -7.681633 2.898280 -6.555378
v -8.152231 2.898280 -6.461770
v -7.282680 2.898280 -6.821950
v -7.681633 2.683812 -6.555378
v -7.479138 2.898280 -6.066511
v -7.479138 1.048800 -6.066511
v -6.908517 2.898280 -6.447789
v -8.152231 2.898280 -5.932624
v -8.152231 1.048800 -5.932624
v -8.825324 2.898280 -6.066511
v -9.395946 2.898280 -6.447789
v -8.622829 2.898280 -6.555378
v -8.825324 1.048800 -6.066511
v -9.395946 1.048800 -6.447789
v -11.172840 0.435365 -0.399103
v -13.733590 0.435365 -2.110142
v -8.152231 0.435365 0.201731
v -11.172840 0.145131 -0.399103
v -13.733590 0.145131 -2.110142
v -8.152231 0.145131 0.201731
v -5.131621 0.145131 -0.399103
v -5.131621 0.435365 -0.399103
v -2.570872 0.145131 -2.110145
v -2.570872 0.435365 -2.110145
v -0.859833 0.145131 -4.670892
v -0.859833 0.435364 -4.670892
v -0.258997 0.145130 -7.691504
v -0.258997 0.435364 -7.691504
v -0.859833 0.145130 -10.712112
v -0.859833 0.435364 -10.712112
v -2.570872 0.145130 -13.272865
v -2.570872 0.435364 -13.272865
v -5.131621 0.145130 -14.983902
v -5.131621 0.435364 -14.983902
v -8.152231 0.145130 -15.584740
v -11.172838 0.145130 -14.983902
v -8.152231 0.435364 -15.584740
v -11.172838 0.435364 -14.983902
v -8.152231 1.048800 -9.450380
v -8.825324 1.048800 -9.316494
v -8.152231 2.898280 -9.450380
v -7.479138 1.048800 -9.316494
v -7.479138 2.898280 -9.316494
v -6.908517 1.048800 -8.935218
v -6.527241 1.048800 -8.364595
v -6.908517 2.898280 -8.935218
v -6.527241 2.898280 -8.364595
v -7.282680 2.898280 -8.561056
v -7.016106 2.898280 -8.162102
v -7.681633 2.898280 -8.827629
v -7.282680 2.683812 -8.561056
v -7.016106 2.683812 -8.162102
v -7.681633 2.683812 -8.827629
v -8.152231 2.683812 -8.921236
v -8.622829 2.683812 -8.827629
v -8.152231 2.898280 -8.921236
v -8.622829 2.898280 -8.827629
v -9.021785 2.898280 -8.561056
v -8.825324 2.898280 -9.316494
v -9.395946 2.898280 -8.935218
v -9.777222 2.898280 -8.364595
v -9.395946 1.048800 -8.935218
v -13.733590 0.435364 -13.272867
v -9.777222 1.048800 -8.364595
v -9.911108 1.048800 -7.691504
v -15.444630 0.435364 -10.712115
v -16.045465 0.435364 -7.691504
v -15.444630 0.145130 -10.712115
v -13.733590 0.145130 -13.272867
v -16.045465 0.145130 -7.691504
v -15.444630 0.145131 -4.670892
v -15.444630 0.435364 -4.670892
v -9.777222 1.048800 -7.018409
v -9.777222 2.898280 -7.018409
v -9.911108 2.898280 -7.691504
v -9.288357 2.898280 -7.220905
v -9.381965 2.898280 -7.691504
v -9.021785 2.898280 -6.821950
v -9.288357 2.683812 -7.220905
v -9.021785 2.683812 -6.821950
v -9.381965 2.683812 -7.691504
v -9.288357 2.683812 -8.162102
v -9.021785 2.683812 -8.561056
v -9.288357 2.898280 -8.162102
v -8.622829 2.683812 -6.555378
v -8.152231 2.683812 -6.461770
v -6.922498 2.683812 -7.691504
v -6.922498 2.898280 -7.691504
v -7.016106 2.683812 -7.220905
v -7.282680 2.683812 -6.821950
v -7.016106 2.898280 -7.220905
v -6.527241 2.898280 -7.018411
v -6.393354 2.898280 -7.691504
v -6.527241 1.048800 -7.018411
v -6.908517 1.048800 -6.447789
v -6.393354 1.048800 -7.691504
vn -0.1951 -0.0000 -0.9808
vn -0.0000 1.0000 -0.0000
vn -0.5556 -0.0000 -0.8315
vn 0.5556 -0.0000 0.8315
vn 0.1951 -0.0000 0.9808
vn -0.1951 -0.0000 0.9808
vn -0.5556 -0.0000 0.8315
vn -0.0564 0.9948 0.0843
vn -0.0198 0.9948 0.0995
vn 0.8315 -0.0000 0.5556
vn 0.9808 -0.0000 0.1951
vn 0.9808 -0.0000 -0.1951
vn 0.8315 -0.0000 -0.5556
vn 0.5556 -0.0000 -0.8315
vn 0.1951 -0.0000 -0.9808
vn -0.0198 0.9948 -0.0995
vn 0.0198 0.9948 -0.0995
vn 0.0564 0.9948 -0.0843
vn 0.0843 0.9948 -0.0564
vn -0.8315 -0.0000 0.5556
vn -0.8315 -0.0000 -0.5556
vn -0.0564 0.9948 -0.0843
vn -0.0843 0.9948 -0.0564
vn -0.0995 0.9948 -0.0198
vn -0.9808 -0.0000 -0.1951
vn -0.9808 -0.0000 0.1951
vn -0.0995 0.9948 0.0198
vn -0.0843 0.9948 0.0564
vn 0.0843 0.9948 0.0564
vn 0.0995 0.9948 0.0198
vn 0.0995 0.9948 -0.0198
vn 0.0564 0.9948 0.0843
vn 0.0198 0.9948 0.0995
vt 0.000000 0.000000
vt 0.000000 0.000000
vt 0.000000 0.000000
vt 0.000000 0.000000
vt 0.000000 0.000000
vt 0.000000 0.000000
vt 0.700496 -0.086270
vt 0.000000 0.000000
vt 0.000000 0.000000
vt 0.000000 0.000000
vt 0.500000 -0.134575
vt 0.000000 0.000000
vt 0.000000 0.000000
vt 0.000000 0.000000
vt 0.000000 0.000000
vt 0.299504 -0.086270
vt 0.129532 0.051288
vt 0.000000 0.000000
vt -0.399755 -2.130979
vt 0.000000 0.000000
vt 0.000000 0.000000
vt -1.162531 -1.513664
vt 0.000000 0.000000
vt 0.500000 -2.347750
vt 0.000000 0.000000
vt 0.000000 0.000000
vt 0.000000 0.000000
vt 0.000000 0.000000
vt 0.000000 0.000000
vt 1.399755 -2.130979
vt 0.000000 0.000000
vt 0.000000 0.000000
vt 2.162531 -1.513664
vt 0.000000 0.000000
vt 0.000000 0.000000
vt 2.672201 -0.589787
vt 0.000000 0.000000
vt 0.000000 0.000000
vt 2.851174 0.500000
vt 0.000000 0.000000
vt 0.000000 0.000000
vt 2.672201 1.589787
vt 0.000000 0.000000
vt 0.000000 0.000000
vt 2.162531 2.513664
vt 0.000000 0.000000
vt 0.000000 0.000000
vt 1.399755 3.130978
vt 0.000000 0.000000
vt 0.000000 0.000000
vt 0.000000 0.000000
vt 0.499999 3.347750
vt -0.399755 3.130978
vt 0.000000 0.000000
vt 0.500000 1.134575
vt 0.000000 0.000000
vt 0.000000 0.000000
vt 0.299504 1.086271
vt 0.000000 0.000000
vt 0.000000 0.000000
vt 0.700496 1.086271
vt 0.000000 0.000000
vt 0.870468 0.948712
vt 0.000000 0.000000
vt 0.984040 0.742841
vt 0.000000 0.000000
vt 0.000000 0.000000
vt 0.000000 0.000000
vt 0.000000 0.000000
vt 0.000000 0.000000
vt 0.000000 0.000000
vt 0.000000 0.000000
vt 0.000000 0.000000
vt 0.000000 0.000000
vt 0.000000 0.000000
vt 0.000000 0.000000
vt 0.000000 0.000000
vt 0.000000 0.000000
vt 0.000000 0.000000
vt 0.000000 0.000000
vt 0.000000 0.000000
vt 0.000000 0.000000
vt 0.000000 0.000000
vt 0.129532 0.948712
vt -1.162531 2.513665
vt 0.000000 0.000000
vt 0.015961 0.742841
vt 0.000000 0.000000
vt -0.023921 0.500000
vt 0.000000 0.000000
vt -1.672202 1.589787
vt 0.000000 0.000000
vt 0.000000 0.000000
vt -1.851174 0.500000
vt 0.000000 0.000000
vt 0.000000 0.000000
vt 0.000000 0.000000
vt 0.000000 0.000000
vt 0.000000 0.000000
vt -1.672202 -0.589787
vt 0.015961 0.257159
vt 0.000000 0.000000
vt 0.000000 0.000000
vt 0.000000 0.000000
vt 0.000000 0.000000
vt 0.000000 0.000000
vt 0.000000 0.000000
vt 0.000000 0.000000
vt 0.000000 0.000000
vt 0.000000 0.000000
vt 0.000000 0.000000
vt 0.000000 0.000000
vt 0.000000 0.000000
vt 0.000000 0.000000
vt 0.000000 0.000000
vt 0.000000 0.000000
vt 0.000000 0.000000
vt 0.000000 0.000000
vt 0.000000 0.000000
vt 0.000000 0.000000
vt 0.000000 0.000000
vt 0.000000 0.000000
vt 0.000000 0.000000
vt 0.984040 0.257159
vt 0.000000 0.000000
vt 0.870468 0.051288
vt 1.023921 0.500000
vt 0.000000 0.000000
s 0
usemtl Material.024
f 2/2/1 1/1/1 4/4/1 86/115/1
f 1/1/2 2/2/2 8/9/2 5/5/2
f 5/5/5 8/9/5 9/10/5 6/6/5
f 12/14/2 78/107/2 11/13/2 10/12/2
f 10/12/7 11/13/7 14/18/7 13/15/7
f 15/20/7 16/21/7 19/26/7 18/25/7
f 22/29/5 17/23/5 20/27/5 21/28/5
f 26/35/10 24/32/10 23/31/10 25/34/10
f 30/41/12 28/38/12 27/37/12 29/40/12
f 34/47/14 32/44/14 31/43/14 33/46/14
f 38/54/1 37/51/1 35/49/1 36/50/1
f 59/80/1 41/59/1 39/56/1 40/57/1
f 43/62/14 46/67/14 44/64/14 42/60/14
f 50/71/2 48/69/2 46/67/2 43/62/2
f 48/69/7 50/71/7 53/74/7 51/72/7
f 56/77/5 57/78/5 55/76/5 54/75/5
f 57/78/2 56/77/2 41/59/2 59/80/2
f 84/113/2 58/79/2 60/81/2 61/82/2
f 61/82/21 60/81/21 62/83/21 64/88/21
f 66/92/21 63/86/21 69/96/21 68/95/21
f 72/99/26 67/93/26 70/97/26 71/98/26
f 74/103/26 75/104/26 65/90/26 73/102/26
f 76/105/2 77/106/2 75/104/2 74/103/2
f 77/106/12 76/105/12 79/108/12 81/110/12
f 58/79/10 84/113/10 82/111/10 83/112/10
f 78/107/14 12/14/14 85/114/14 80/109/14
f 88/117/26 49/70/26 52/73/26 87/116/26
f 3/3/21 91/120/21 89/118/21 90/119/21
f 91/120/2 3/3/2 7/8/2 92/121/2
f 92/121/10 7/8/10 95/125/10 94/123/10
f 47/68/12 93/122/12 96/128/12 45/66/12
f 49/70/2 88/117/2 93/122/2 47/68/2
usemtl Material.025
f 1/1/3 3/3/3 90/119/3 4/4/3
f 3/3/2 1/1/2 5/5/2 7/8/2
f 7/8/4 5/5/4 6/6/4 95/125/4
f 8/9/6 10/12/6 13/15/6 9/10/6
f 2/2/2 12/14/2 10/12/2 8/9/2
f 17/23/6 15/20/6 18/25/6 20/27/6
f 24/32/4 22/29/4 21/28/4 23/31/4
f 28/38/11 26/35/11 25/34/11 27/37/11
f 32/44/13 30/41/13 29/40/13 31/43/13
f 37/51/15 34/47/15 33/46/15 35/49/15
f 41/59/15 43/62/15 42/60/15 39/56/15
f 46/67/13 47/68/13 45/66/13 44/64/13
f 48/69/2 49/70/2 47/68/2 46/67/2
f 49/70/20 48/69/20 51/72/20 52/73/20
f 50/71/6 56/77/6 54/75/6 53/74/6
f 56/77/2 50/71/2 43/62/2 41/59/2
f 57/78/4 58/79/4 83/112/4 55/76/4
f 58/79/2 57/78/2 59/80/2 60/81/2
f 60/81/3 59/80/3 40/57/3 62/83/3
f 75/104/25 61/82/25 64/88/25 65/90/25
f 67/93/25 66/92/25 68/95/25 70/97/25
f 16/21/20 72/99/20 71/98/20 19/26/20
f 11/13/20 74/103/20 73/102/20 14/18/20
f 78/107/2 76/105/2 74/103/2 11/13/2
f 76/105/13 78/107/13 80/109/13 79/108/13
f 84/113/11 77/106/11 81/110/11 82/111/11
f 77/106/2 84/113/2 61/82/2 75/104/2
f 12/14/15 2/2/15 86/115/15 85/114/15
f 63/86/3 38/54/3 36/50/3 69/96/3
f 91/120/25 88/117/25 87/116/25 89/118/25
f 88/117/2 91/120/2 92/121/2 93/122/2
f 93/122/11 92/121/11 94/123/11 96/128/11
usemtl Material.027
f 13/16/8 14/17/8 16/22/8 15/19/8
f 9/11/9 13/16/9 15/19/9 17/24/9
f 40/58/16 39/55/16 37/52/16 38/53/16
f 39/55/17 42/61/17 34/48/17 37/52/17
f 42/61/18 44/63/18 32/45/18 34/48/18
f 44/63/19 45/65/19 30/42/19 32/45/19
f 62/84/22 40/58/22 38/53/22 63/85/22
f 64/87/23 62/84/23 63/85/23 66/91/23
f 65/89/24 64/87/24 66/91/24 67/94/24
f 73/101/27 65/89/27 67/94/27 72/100/27
f 14/17/28 73/101/28 72/100/28 16/22/28
f 94/124/29 95/126/29 24/33/29 26/36/29
f 96/127/30 94/124/30 26/36/30 28/39/30
f 45/65/31 96/127/31 28/39/31 30/42/31
f 95/126/32 6/7/32 22/30/32 24/33/32
f 6/7/33 9/11/33 17/24/33 22/30/33
