# Blender 3.5.1
# www.blender.org
mtllib FWPlatform.mtl
o Platform.002
v 12.385838 5.035273 -33.730675
v 12.385838 0.055645 -33.730675
v -1.439301 5.035273 -33.730675
v -1.439301 0.055645 -33.730675
v 12.385838 5.035273 -44.780991
v 12.385838 0.055645 -44.780991
v -1.439301 5.035273 -44.780991
v -1.439301 0.055645 -44.780991
v 6.993687 5.039546 -33.766033
v 6.993687 0.109666 -33.766033
v 6.993687 0.109666 -27.307419
v 6.680497 5.039546 -33.766033
v 6.680497 0.109666 -33.766033
v 6.680497 0.109666 -27.307419
v 12.209124 5.039546 -33.766033
v 12.209124 0.109666 -33.766033
v 12.209124 0.109666 -27.307419
v 11.895933 5.039546 -33.766033
v 11.895933 0.109666 -33.766033
v 11.895934 0.109666 -27.307419
vn -0.0000 -0.0000 1.0000
vn -1.0000 -0.0000 -0.0000
vn -0.0000 -0.0000 -1.0000
vn 1.0000 -0.0000 -0.0000
vn -0.0000 1.0000 -0.0000
vn -0.0000 -1.0000 -0.0000
vn -0.0000 0.7949 0.6067
vt 0.375000 0.000000
vt 0.375000 1.000000
vt 0.125000 0.750000
vt 0.625000 0.000000
vt 0.625000 1.000000
vt 0.875000 0.750000
vt 0.375000 0.250000
vt 0.125000 0.500000
vt 0.625000 0.250000
vt 0.875000 0.500000
vt 0.375000 0.750000
vt 0.625000 0.750000
vt 0.375000 0.500000
vt 0.625000 0.500000
vt 0.375000 1.000000
vt 0.875000 0.750000
vt 0.875000 0.500000
vt 0.375000 0.750000
vt 0.625000 0.750000
vt 0.625000 0.500000
vt 0.375000 1.000000
vt 0.875000 0.750000
vt 0.875000 0.500000
vt 0.375000 0.750000
vt 0.625000 0.750000
vt 0.625000 0.500000
s 0
f 1/1/1 3/7/1 4/9/1 2/4/1
f 3/7/2 7/13/2 8/14/2 4/9/2
f 7/13/3 5/11/3 6/12/3 8/14/3
f 5/11/4 1/2/4 2/5/4 6/12/4
f 3/8/5 1/3/5 5/11/5 7/13/5
f 8/14/6 6/12/6 2/6/6 4/10/6
f 12/18/3 9/15/3 10/16/3 13/19/3
f 14/20/6 13/19/6 10/16/6 11/17/6
f 14/20/7 11/17/7 9/15/7 12/18/7
f 13/19/2 14/20/2 12/18/2
f 18/24/3 15/21/3 16/22/3 19/25/3
f 20/26/6 19/25/6 16/22/6 17/23/6
f 20/26/7 17/23/7 15/21/7 18/24/7
f 19/25/2 20/26/2 18/24/2
