# Blender 3.5.1
# www.blender.org
mtllib FWSpindle.mtl
o Spindle
v 7.248307 24.284027 -44.681423
v 7.248307 24.284027 -43.050579
v 7.147059 23.775345 -44.681423
v 7.147059 23.775347 -43.050579
v 6.858730 23.344107 -44.681423
v 6.858730 23.344107 -43.050579
v 6.427214 23.055962 -44.681423
v 6.427214 23.055962 -43.050579
v 5.918207 22.954779 -44.681423
v 5.918207 22.954779 -43.050579
v 5.409199 23.055962 -44.681423
v 5.409199 23.055962 -43.050579
v 4.977684 23.344107 -44.681423
v 4.977684 23.344107 -43.050579
v 4.689354 23.775345 -44.681423
v 4.689354 23.775347 -43.050579
v 4.588106 24.284027 -44.681423
v 4.588106 24.284027 -43.050579
v 4.689354 24.792707 -44.681423
v 4.689354 24.792709 -43.050579
v 4.977684 25.223948 -44.681423
v 4.977684 25.223948 -43.050579
v 5.409199 25.512093 -44.681423
v 5.409199 25.512093 -43.050579
v 5.918207 25.613276 -44.681423
v 5.918207 25.613276 -43.050579
v 6.427214 25.512093 -44.681423
v 6.427214 25.512093 -43.050579
v 6.858730 25.223948 -44.681423
v 6.858730 25.223948 -43.050579
v 7.147059 24.792707 -44.681423
v 7.147059 24.792709 -43.050579
v 6.636806 24.284029 -45.340073
v 6.636806 24.284029 -33.274826
v 6.582122 24.009111 -45.340073
v 6.582122 24.009113 -33.274826
v 6.426394 23.776049 -45.340073
v 6.426394 23.776049 -33.274826
v 6.193332 23.620321 -45.340073
v 6.193331 23.620321 -33.274826
v 5.918416 23.565638 -45.340073
v 5.918415 23.565638 -33.274826
v 5.643499 23.620321 -45.340073
v 5.643498 23.620321 -33.274826
v 5.410436 23.776049 -45.340073
v 5.410436 23.776049 -33.274826
v 5.254709 24.009111 -45.340073
v 5.254708 24.009113 -33.274826
v 5.200025 24.284029 -45.340073
v 5.200024 24.284029 -33.274826
v 5.254709 24.558945 -45.340073
v 5.254708 24.558945 -33.274826
v 5.410436 24.792007 -45.340073
v 5.410436 24.792007 -33.274826
v 5.643499 24.947735 -45.340073
v 5.643498 24.947735 -33.274826
v 5.918416 25.002420 -45.340073
v 5.918415 25.002420 -33.274826
v 6.193332 24.947735 -45.340073
v 6.193331 24.947735 -33.274826
v 6.426394 24.792007 -45.340073
v 6.426394 24.792007 -33.274826
v 6.582122 24.558945 -45.340073
v 6.582122 24.558945 -33.274826
v 7.248516 24.284029 -35.527557
v 7.248516 24.284029 -33.896713
v 7.147268 23.775347 -35.527557
v 7.147268 23.775347 -33.896713
v 6.858938 23.344109 -35.527557
v 6.858938 23.344109 -33.896713
v 6.427423 23.055964 -35.527557
v 6.427423 23.055964 -33.896713
v 5.918415 22.954781 -35.527557
v 5.918415 22.954781 -33.896713
v 5.409408 23.055964 -35.527557
v 5.409408 23.055964 -33.896713
v 4.977892 23.344109 -35.527557
v 4.977892 23.344109 -33.896713
v 4.689562 23.775347 -35.527557
v 4.689562 23.775347 -33.896713
v 4.588315 24.284029 -35.527557
v 4.588315 24.284029 -33.896713
v 4.689562 24.792709 -35.527557
v 4.689562 24.792709 -33.896713
v 4.977892 25.223949 -35.527557
v 4.977892 25.223949 -33.896713
v 5.409408 25.512094 -35.527557
v 5.409408 25.512094 -33.896713
v 5.918415 25.613277 -35.527557
v 5.918415 25.613277 -33.896713
v 6.427423 25.512094 -35.527557
v 6.427423 25.512094 -33.896713
v 6.858938 25.223949 -35.527557
v 6.858938 25.223949 -33.896713
v 7.147268 24.792709 -35.527557
v 7.147268 24.792709 -33.896713
vn 1.0000 -0.0000 -0.0000
vn 0.9238 -0.3829 -0.0000
vn 0.7069 -0.7073 -0.0000
vn 0.3825 -0.9240 -0.0000
vn -0.0000 -1.0000 -0.0000
vn -0.3825 -0.9240 -0.0000
vn -0.7069 -0.7073 -0.0000
vn -0.9238 -0.3829 -0.0000
vn -1.0000 -0.0000 -0.0000
vn -0.9238 0.3829 -0.0000
vn -0.7069 0.7073 -0.0000
vn -0.3825 0.9240 -0.0000
vn -0.0000 1.0000 -0.0000
vn 0.3825 0.9240 -0.0000
vn 0.7069 0.7073 -0.0000
vn -0.0000 -0.0000 1.0000
vn 0.9238 0.3829 -0.0000
vn -0.0000 -0.0000 -1.0000
vn 0.9239 -0.3827 -0.0000
vn 0.7071 -0.7071 -0.0000
vn 0.3827 -0.9239 -0.0000
vn -0.3827 -0.9239 -0.0000
vn -0.7071 -0.7071 -0.0000
vn -0.9239 -0.3827 -0.0000
vn -0.9239 0.3827 -0.0000
vn -0.7071 0.7071 -0.0000
vn -0.3827 0.9239 -0.0000
vn 0.3827 0.9239 -0.0000
vn 0.7071 0.7071 -0.0000
vn 0.9239 0.3827 -0.0000
vt 1.000000 0.500000
vt 0.000000 0.500000
vt 0.750000 0.490000
vt 1.000000 1.000000
vt 0.250000 0.490000
vt 0.000000 1.000000
vt 0.937500 0.500000
vt 0.841844 0.471731
vt 0.937500 1.000000
vt 0.341844 0.471731
vt 0.875000 0.500000
vt 0.919706 0.419706
vt 0.875000 1.000000
vt 0.419706 0.419706
vt 0.812500 0.500000
vt 0.971731 0.341844
vt 0.812500 1.000000
vt 0.471731 0.341844
vt 0.750000 0.500000
vt 0.990000 0.250000
vt 0.750000 1.000000
vt 0.490000 0.250000
vt 0.687500 0.500000
vt 0.971731 0.158156
vt 0.687500 1.000000
vt 0.471731 0.158156
vt 0.625000 0.500000
vt 0.919706 0.080294
vt 0.625000 1.000000
vt 0.419706 0.080294
vt 0.562500 0.500000
vt 0.841844 0.028269
vt 0.562500 1.000000
vt 0.341844 0.028269
vt 0.500000 0.500000
vt 0.750000 0.010000
vt 0.500000 1.000000
vt 0.250000 0.010000
vt 0.437500 0.500000
vt 0.658156 0.028269
vt 0.437500 1.000000
vt 0.158156 0.028269
vt 0.375000 0.500000
vt 0.580294 0.080294
vt 0.375000 1.000000
vt 0.080294 0.080294
vt 0.312500 0.500000
vt 0.528269 0.158156
vt 0.312500 1.000000
vt 0.028269 0.158156
vt 0.250000 0.500000
vt 0.510000 0.250000
vt 0.250000 1.000000
vt 0.010000 0.250000
vt 0.187500 0.500000
vt 0.528269 0.341844
vt 0.187500 1.000000
vt 0.028269 0.341844
vt 0.125000 0.500000
vt 0.580294 0.419706
vt 0.080294 0.419706
vt 0.125000 1.000000
vt 0.062500 0.500000
vt 0.658156 0.471731
vt 0.158156 0.471731
vt 0.062500 1.000000
vt 1.000000 0.500000
vt 0.000000 0.500000
vt 0.750000 0.490000
vt 1.000000 1.000000
vt 0.250000 0.490000
vt 0.000000 1.000000
vt 0.937500 0.500000
vt 0.841844 0.471731
vt 0.937500 1.000000
vt 0.341844 0.471731
vt 0.875000 0.500000
vt 0.919706 0.419706
vt 0.875000 1.000000
vt 0.419706 0.419706
vt 0.812500 0.500000
vt 0.971731 0.341844
vt 0.812500 1.000000
vt 0.471731 0.341844
vt 0.750000 0.500000
vt 0.990000 0.250000
vt 0.750000 1.000000
vt 0.490000 0.250000
vt 0.687500 0.500000
vt 0.971731 0.158156
vt 0.687500 1.000000
vt 0.471731 0.158156
vt 0.625000 0.500000
vt 0.919706 0.080294
vt 0.625000 1.000000
vt 0.419706 0.080294
vt 0.562500 0.500000
vt 0.841844 0.028269
vt 0.562500 1.000000
vt 0.341844 0.028269
vt 0.500000 0.500000
vt 0.750000 0.010000
vt 0.500000 1.000000
vt 0.250000 0.010000
vt 0.437500 0.500000
vt 0.658156 0.028269
vt 0.437500 1.000000
vt 0.158156 0.028269
vt 0.375000 0.500000
vt 0.580294 0.080294
vt 0.375000 1.000000
vt 0.080294 0.080294
vt 0.312500 0.500000
vt 0.528269 0.158156
vt 0.312500 1.000000
vt 0.028269 0.158156
vt 0.250000 0.500000
vt 0.510000 0.250000
vt 0.250000 1.000000
vt 0.010000 0.250000
vt 0.187500 0.500000
vt 0.528269 0.341844
vt 0.187500 1.000000
vt 0.028269 0.341844
vt 0.125000 0.500000
vt 0.580294 0.419706
vt 0.080294 0.419706
vt 0.125000 1.000000
vt 0.062500 0.500000
vt 0.658156 0.471731
vt 0.158156 0.471731
vt 0.062500 1.000000
vt 1.000000 0.500000
vt 0.000000 0.500000
vt 0.750000 0.490000
vt 1.000000 1.000000
vt 0.250000 0.490000
vt 0.000000 1.000000
vt 0.937500 0.500000
vt 0.841844 0.471731
vt 0.937500 1.000000
vt 0.341844 0.471731
vt 0.875000 0.500000
vt 0.919706 0.419706
vt 0.875000 1.000000
vt 0.419706 0.419706
vt 0.812500 0.500000
vt 0.971731 0.341844
vt 0.812500 1.000000
vt 0.471731 0.341844
vt 0.750000 0.500000
vt 0.990000 0.250000
vt 0.750000 1.000000
vt 0.490000 0.250000
vt 0.687500 0.500000
vt 0.971731 0.158156
vt 0.687500 1.000000
vt 0.471731 0.158156
vt 0.625000 0.500000
vt 0.919706 0.080294
vt 0.625000 1.000000
vt 0.419706 0.080294
vt 0.562500 0.500000
vt 0.841844 0.028269
vt 0.562500 1.000000
vt 0.341844 0.028269
vt 0.500000 0.500000
vt 0.750000 0.010000
vt 0.500000 1.000000
vt 0.250000 0.010000
vt 0.437500 0.500000
vt 0.658156 0.028269
vt 0.437500 1.000000
vt 0.158156 0.028269
vt 0.375000 0.500000
vt 0.580294 0.080294
vt 0.375000 1.000000
vt 0.080294 0.080294
vt 0.312500 0.500000
vt 0.528269 0.158156
vt 0.312500 1.000000
vt 0.028269 0.158156
vt 0.250000 0.500000
vt 0.510000 0.250000
vt 0.250000 1.000000
vt 0.010000 0.250000
vt 0.187500 0.500000
vt 0.528269 0.341844
vt 0.187500 1.000000
vt 0.028269 0.341844
vt 0.125000 0.500000
vt 0.580294 0.419706
vt 0.080294 0.419706
vt 0.125000 1.000000
vt 0.062500 0.500000
vt 0.658156 0.471731
vt 0.158156 0.471731
vt 0.062500 1.000000
s 1
f 1/1/1 2/4/1 4/9/2 3/7/2
f 3/7/2 4/9/2 6/13/3 5/11/3
f 5/11/3 6/13/3 8/17/4 7/15/4
f 7/15/4 8/17/4 10/21/5 9/19/5
f 9/19/5 10/21/5 12/25/6 11/23/6
f 11/23/6 12/25/6 14/29/7 13/27/7
f 13/27/7 14/29/7 16/33/8 15/31/8
f 15/31/8 16/33/8 18/37/9 17/35/9
f 17/35/9 18/37/9 20/41/10 19/39/10
f 19/39/10 20/41/10 22/45/11 21/43/11
f 21/43/11 22/45/11 24/49/12 23/47/12
f 23/47/12 24/49/12 26/53/13 25/51/13
f 25/51/13 26/53/13 28/57/14 27/55/14
f 27/55/14 28/57/14 30/62/15 29/59/15
f 4/10/16 2/5/16 32/65/16 30/61/16 28/58/16 26/54/16 24/50/16 22/46/16 20/42/16 18/38/16 16/34/16 14/30/16 12/26/16 10/22/16 8/18/16 6/14/16
f 29/59/15 30/62/15 32/66/17 31/63/17
f 31/63/17 32/66/17 2/6/1 1/2/1
f 1/3/18 3/8/18 5/12/18 7/16/18 9/20/18 11/24/18 13/28/18 15/32/18 17/36/18 19/40/18 21/44/18 23/48/18 25/52/18 27/56/18 29/60/18 31/64/18
f 33/67/1 34/70/1 36/75/19 35/73/19
f 35/73/19 36/75/19 38/79/20 37/77/20
f 37/77/20 38/79/20 40/83/21 39/81/21
f 39/81/21 40/83/21 42/87/5 41/85/5
f 41/85/5 42/87/5 44/91/22 43/89/22
f 43/89/22 44/91/22 46/95/23 45/93/23
f 45/93/23 46/95/23 48/99/24 47/97/24
f 47/97/24 48/99/24 50/103/9 49/101/9
f 49/101/9 50/103/9 52/107/25 51/105/25
f 51/105/25 52/107/25 54/111/26 53/109/26
f 53/109/26 54/111/26 56/115/27 55/113/27
f 55/113/27 56/115/27 58/119/13 57/117/13
f 57/117/13 58/119/13 60/123/28 59/121/28
f 59/121/28 60/123/28 62/128/29 61/125/29
f 36/76/16 34/71/16 64/131/16 62/127/16 60/124/16 58/120/16 56/116/16 54/112/16 52/108/16 50/104/16 48/100/16 46/96/16 44/92/16 42/88/16 40/84/16 38/80/16
f 61/125/29 62/128/29 64/132/30 63/129/30
f 63/129/30 64/132/30 34/72/1 33/68/1
f 33/69/18 35/74/18 37/78/18 39/82/18 41/86/18 43/90/18 45/94/18 47/98/18 49/102/18 51/106/18 53/110/18 55/114/18 57/118/18 59/122/18 61/126/18 63/130/18
f 65/133/1 66/136/1 68/141/2 67/139/2
f 67/139/2 68/141/2 70/145/3 69/143/3
f 69/143/3 70/145/3 72/149/4 71/147/4
f 71/147/4 72/149/4 74/153/5 73/151/5
f 73/151/5 74/153/5 76/157/6 75/155/6
f 75/155/6 76/157/6 78/161/7 77/159/7
f 77/159/7 78/161/7 80/165/8 79/163/8
f 79/163/8 80/165/8 82/169/9 81/167/9
f 81/167/9 82/169/9 84/173/10 83/171/10
f 83/171/10 84/173/10 86/177/11 85/175/11
f 85/175/11 86/177/11 88/181/12 87/179/12
f 87/179/12 88/181/12 90/185/13 89/183/13
f 89/183/13 90/185/13 92/189/14 91/187/14
f 91/187/14 92/189/14 94/194/15 93/191/15
f 68/142/16 66/137/16 96/197/16 94/193/16 92/190/16 90/186/16 88/182/16 86/178/16 84/174/16 82/170/16 80/166/16 78/162/16 76/158/16 74/154/16 72/150/16 70/146/16
f 93/191/15 94/194/15 96/198/17 95/195/17
f 95/195/17 96/198/17 66/138/1 65/134/1
f 65/135/18 67/140/18 69/144/18 71/148/18 73/152/18 75/156/18 77/160/18 79/164/18 81/168/18 83/172/18 85/176/18 87/180/18 89/184/18 91/188/18 93/192/18 95/196/18
